<mxfile host="app.diagrams.net" agent="Mozilla/5.0 (Windows NT 10.0; Win64; x64) AppleWebKit/537.36 (KHTML, like Gecko) Chrome/140.0.0.0 Safari/537.36" version="28.2.5">
  <diagram name="Page-1" id="hyEy6L5nHVSkWSnWMubL">
    <mxGraphModel dx="2037" dy="593" grid="1" gridSize="10" guides="1" tooltips="1" connect="1" arrows="1" fold="1" page="1" pageScale="1" pageWidth="827" pageHeight="1169" math="0" shadow="0">
      <root>
        <mxCell id="0" />
        <mxCell id="1" parent="0" />
        <UserObject label="" plantUmlData="{&#xa;  &quot;data&quot;: &quot;@startuml\n!pragma layout smetana\n\ntitle Сетевой граф работ (Задание 3)\n\n(*) --&gt; \&quot;1. Встретиться с руководством\&quot;\n--&gt; \&quot;2. Составить список требований\&quot;\n\n--&gt; \&quot;3. Приобрести описания систем других банков\&quot;\n--&gt; \&quot;7. Обсудить пути решения проблем\&quot;\n\n\&quot;2. Составить список требований\&quot; --&gt; \&quot;4. Составить отличительные черты систем\&quot;\n\&quot;4. Составить отличительные черты систем\&quot; --&gt; \&quot;7. Обсудить пути решения проблем\&quot;\n\n\&quot;2. Составить список требований\&quot; --&gt; \&quot;5. Проконсультироваться у юриста\&quot;\n\&quot;5. Проконсультироваться у юриста\&quot; --&gt; \&quot;7. Обсудить пути решения проблем\&quot;\n\n\&quot;2. Составить список требований\&quot; --&gt; \&quot;6. Выяснить морально-этические проблемы\&quot;\n\&quot;6. Выяснить морально-этические проблемы\&quot; --&gt; \&quot;7. Обсудить пути решения проблем\&quot;\n\n\&quot;7. Обсудить пути решения проблем\&quot; --&gt; \&quot;8. Разработать систему премирования\&quot;\n\&quot;8. Разработать систему премирования\&quot; --&gt; \&quot;9. Провести презентацию\&quot;\n\&quot;9. Провести презентацию\&quot; --&gt; (*)\n\n@enduml\n&quot;,&#xa;  &quot;format&quot;: &quot;svg&quot;&#xa;}" id="MgeT7F4WineAnSfHMYRI-1">
          <mxCell style="shape=image;noLabel=1;verticalAlign=top;aspect=fixed;imageAspect=0;image=data:image/svg+xml,PHN2ZyB4bWxucz0iaHR0cDovL3d3dy53My5vcmcvMjAwMC9zdmciIHhtbG5zOnhsaW5rPSJodHRwOi8vd3d3LnczLm9yZy8xOTk5L3hsaW5rIiBjb250ZW50U3R5bGVUeXBlPSJ0ZXh0L2NzcyIgZGF0YS1kaWFncmFtLXR5cGU9IkFDVElWSVRZIiBoZWlnaHQ9IjU0OXB4IiBwcmVzZXJ2ZUFzcGVjdFJhdGlvPSJub25lIiBzdHlsZT0id2lkdGg6MTA2NHB4O2hlaWdodDo1NDlweDtiYWNrZ3JvdW5kOiNGRkZGRkY7IiB2ZXJzaW9uPSIxLjEiIHZpZXdCb3g9IjAgMCAxMDY0IDU0OSIgd2lkdGg9IjEwNjRweCIgem9vbUFuZFBhbj0ibWFnbmlmeSI+PHRpdGxlPiYjMTA1NzsmIzEwNzc7JiMxMDkwOyYjMTA3NzsmIzEwNzQ7JiMxMDg2OyYjMTA4MTsgJiMxMDc1OyYjMTA4ODsmIzEwNzI7JiMxMDkyOyAmIzEwODg7JiMxMDcyOyYjMTA3MzsmIzEwODY7JiMxMDkwOyAoJiMxMDQ3OyYjMTA3MjsmIzEwNzY7JiMxMDcyOyYjMTA4NTsmIzEwODA7JiMxMDc3OyAzKTwvdGl0bGU+PGRlZnMvPjxnPjx0ZXh0IGZpbGw9IiMwMDAwMDAiIGZvbnQtZmFtaWx5PSJzYW5zLXNlcmlmIiBmb250LXNpemU9IjE0IiBmb250LXdlaWdodD0iYm9sZCIgbGVuZ3RoQWRqdXN0PSJzcGFjaW5nIiB0ZXh0TGVuZ3RoPSIyMTAiIHg9IjQyMy41IiB5PSIyMy4yMzQ0Ij4mIzEwNTc7JiMxMDc3OyYjMTA5MDsmIzEwNzc7JiMxMDc0OyYjMTA4NjsmIzEwODE7ICYjMTA3NTsmIzEwODg7JiMxMDcyOyYjMTA5MjsgJiMxMDg4OyYjMTA3MjsmIzEwNzM7JiMxMDg2OyYjMTA5MDsgKCYjMTA0NzsmIzEwNzI7JiMxMDc2OyYjMTA3MjsmIzEwODU7JiMxMDgwOyYjMTA3NzsgMyk8L3RleHQ+PGVsbGlwc2UgY3g9IjU1NCIgY3k9IjU3Ljk4NDQiIGZpbGw9IiMyMjIyMjIiIHJ4PSIxMCIgcnk9IjEwIiBzdHlsZT0ic3Ryb2tlOiMyMjIyMjI7c3Ryb2tlLXdpZHRoOjE7Ii8+PHJlY3QgZmlsbD0iI0YxRjFGMSIgaGVpZ2h0PSIzMi44NDM4IiByeD0iMTIuNSIgcnk9IjEyLjUiIHN0eWxlPSJzdHJva2U6IzE4MTgxODtzdHJva2Utd2lkdGg6MC41OyIgd2lkdGg9IjE5NCIgeD0iNDU3IiB5PSIxMDcuOTg0NCIvPjx0ZXh0IGZpbGw9IiMwMDAwMDAiIGZvbnQtZmFtaWx5PSJzYW5zLXNlcmlmIiBmb250LXNpemU9IjEyIiBsZW5ndGhBZGp1c3Q9InNwYWNpbmciIHRleHRMZW5ndGg9IjE3NCIgeD0iNDY3IiB5PSIxMjkuMzI4MSI+MS4gJiMxMDQyOyYjMTA4OTsmIzEwOTA7JiMxMDg4OyYjMTA3NzsmIzEwOTA7JiMxMDgwOyYjMTA5MDsmIzExMDA7JiMxMDg5OyYjMTEwMzsgJiMxMDg5OyAmIzEwODg7JiMxMDkxOyYjMTA4MjsmIzEwODY7JiMxMDc0OyYjMTA4NjsmIzEwNzY7JiMxMDg5OyYjMTA5MDsmIzEwNzQ7JiMxMDg2OyYjMTA4NDs8L3RleHQ+PHJlY3QgZmlsbD0iI0YxRjFGMSIgaGVpZ2h0PSIzMi44NDM4IiByeD0iMTIuNSIgcnk9IjEyLjUiIHN0eWxlPSJzdHJva2U6IzE4MTgxODtzdHJva2Utd2lkdGg6MC41OyIgd2lkdGg9IjIwMCIgeD0iNDU0IiB5PSIxNzYuOTg0NCIvPjx0ZXh0IGZpbGw9IiMwMDAwMDAiIGZvbnQtZmFtaWx5PSJzYW5zLXNlcmlmIiBmb250LXNpemU9IjEyIiBsZW5ndGhBZGp1c3Q9InNwYWNpbmciIHRleHRMZW5ndGg9IjE4MCIgeD0iNDY0IiB5PSIxOTguMzI4MSI+Mi4gJiMxMDU3OyYjMTA4NjsmIzEwODk7JiMxMDkwOyYjMTA3MjsmIzEwNzQ7JiMxMDgwOyYjMTA5MDsmIzExMDA7ICYjMTA4OTsmIzEwODc7JiMxMDgwOyYjMTA4OTsmIzEwODY7JiMxMDgyOyAmIzEwOTA7JiMxMDg4OyYjMTA3NzsmIzEwNzM7JiMxMDg2OyYjMTA3NDsmIzEwNzI7JiMxMDg1OyYjMTA4MDsmIzEwODE7PC90ZXh0PjxyZWN0IGZpbGw9IiNGMUYxRjEiIGhlaWdodD0iMzIuODQzOCIgcng9IjEyLjUiIHJ5PSIxMi41IiBzdHlsZT0ic3Ryb2tlOiMxODE4MTg7c3Ryb2tlLXdpZHRoOjAuNTsiIHdpZHRoPSIyNzgiIHg9IjYiIHk9IjI0NS45ODQ0Ii8+PHRleHQgZmlsbD0iIzAwMDAwMCIgZm9udC1mYW1pbHk9InNhbnMtc2VyaWYiIGZvbnQtc2l6ZT0iMTIiIGxlbmd0aEFkanVzdD0ic3BhY2luZyIgdGV4dExlbmd0aD0iMjU4IiB4PSIxNiIgeT0iMjY3LjMyODEiPjMuICYjMTA1NTsmIzEwODg7JiMxMDgwOyYjMTA4NjsmIzEwNzM7JiMxMDg4OyYjMTA3NzsmIzEwODk7JiMxMDkwOyYjMTA4MDsgJiMxMDg2OyYjMTA4NzsmIzEwODA7JiMxMDg5OyYjMTA3MjsmIzEwODU7JiMxMDgwOyYjMTEwMzsgJiMxMDg5OyYjMTA4MDsmIzEwODk7JiMxMDkwOyYjMTA3NzsmIzEwODQ7ICYjMTA3NjsmIzEwODg7JiMxMDkxOyYjMTA3NTsmIzEwODA7JiMxMDkzOyAmIzEwNzM7JiMxMDcyOyYjMTA4NTsmIzEwODI7JiMxMDg2OyYjMTA3NDs8L3RleHQ+PHJlY3QgZmlsbD0iI0YxRjFGMSIgaGVpZ2h0PSIzMi44NDM4IiByeD0iMTIuNSIgcnk9IjEyLjUiIHN0eWxlPSJzdHJva2U6IzE4MTgxODtzdHJva2Utd2lkdGg6MC41OyIgd2lkdGg9IjIxMiIgeD0iNDQ4IiB5PSIzMTQuOTg0NCIvPjx0ZXh0IGZpbGw9IiMwMDAwMDAiIGZvbnQtZmFtaWx5PSJzYW5zLXNlcmlmIiBmb250LXNpemU9IjEyIiBsZW5ndGhBZGp1c3Q9InNwYWNpbmciIHRleHRMZW5ndGg9IjE5MiIgeD0iNDU4IiB5PSIzMzYuMzI4MSI+Ny4gJiMxMDU0OyYjMTA3MzsmIzEwODk7JiMxMDkxOyYjMTA3NjsmIzEwODA7JiMxMDkwOyYjMTEwMDsgJiMxMDg3OyYjMTA5MTsmIzEwOTA7JiMxMDgwOyAmIzEwODg7JiMxMDc3OyYjMTA5NjsmIzEwNzc7JiMxMDg1OyYjMTA4MDsmIzExMDM7ICYjMTA4NzsmIzEwODg7JiMxMDg2OyYjMTA3MzsmIzEwODM7JiMxMDc3OyYjMTA4NDs8L3RleHQ+PHJlY3QgZmlsbD0iI0YxRjFGMSIgaGVpZ2h0PSIzMi44NDM4IiByeD0iMTIuNSIgcnk9IjEyLjUiIHN0eWxlPSJzdHJva2U6IzE4MTgxODtzdHJva2Utd2lkdGg6MC41OyIgd2lkdGg9IjI1NCIgeD0iMzAyIiB5PSIyNDUuOTg0NCIvPjx0ZXh0IGZpbGw9IiMwMDAwMDAiIGZvbnQtZmFtaWx5PSJzYW5zLXNlcmlmIiBmb250LXNpemU9IjEyIiBsZW5ndGhBZGp1c3Q9InNwYWNpbmciIHRleHRMZW5ndGg9IjIzNCIgeD0iMzEyIiB5PSIyNjcuMzI4MSI+NC4gJiMxMDU3OyYjMTA4NjsmIzEwODk7JiMxMDkwOyYjMTA3MjsmIzEwNzQ7JiMxMDgwOyYjMTA5MDsmIzExMDA7ICYjMTA4NjsmIzEwOTA7JiMxMDgzOyYjMTA4MDsmIzEwOTU7JiMxMDgwOyYjMTA5MDsmIzEwNzc7JiMxMDgzOyYjMTEwMDsmIzEwODU7JiMxMDk5OyYjMTA3NzsgJiMxMDk1OyYjMTA3NzsmIzEwODg7JiMxMDkwOyYjMTA5OTsgJiMxMDg5OyYjMTA4MDsmIzEwODk7JiMxMDkwOyYjMTA3NzsmIzEwODQ7PC90ZXh0PjxyZWN0IGZpbGw9IiNGMUYxRjEiIGhlaWdodD0iMzIuODQzOCIgcng9IjEyLjUiIHJ5PSIxMi41IiBzdHlsZT0ic3Ryb2tlOiMxODE4MTg7c3Ryb2tlLXdpZHRoOjAuNTsiIHdpZHRoPSIyMTIiIHg9IjU3NCIgeT0iMjQ1Ljk4NDQiLz48dGV4dCBmaWxsPSIjMDAwMDAwIiBmb250LWZhbWlseT0ic2Fucy1zZXJpZiIgZm9udC1zaXplPSIxMiIgbGVuZ3RoQWRqdXN0PSJzcGFjaW5nIiB0ZXh0TGVuZ3RoPSIxOTIiIHg9IjU4NCIgeT0iMjY3LjMyODEiPjUuICYjMTA1NTsmIzEwODg7JiMxMDg2OyYjMTA4MjsmIzEwODY7JiMxMDg1OyYjMTA4OTsmIzEwOTE7JiMxMDgzOyYjMTEwMDsmIzEwOTA7JiMxMDgwOyYjMTA4ODsmIzEwODY7JiMxMDc0OyYjMTA3MjsmIzEwOTA7JiMxMTAwOyYjMTA4OTsmIzExMDM7ICYjMTA5MTsgJiMxMTAyOyYjMTA4ODsmIzEwODA7JiMxMDg5OyYjMTA5MDsmIzEwNzI7PC90ZXh0PjxyZWN0IGZpbGw9IiNGMUYxRjEiIGhlaWdodD0iMzIuODQzOCIgcng9IjEyLjUiIHJ5PSIxMi41IiBzdHlsZT0ic3Ryb2tlOiMxODE4MTg7c3Ryb2tlLXdpZHRoOjAuNTsiIHdpZHRoPSIyNTQiIHg9IjgwNCIgeT0iMjQ1Ljk4NDQiLz48dGV4dCBmaWxsPSIjMDAwMDAwIiBmb250LWZhbWlseT0ic2Fucy1zZXJpZiIgZm9udC1zaXplPSIxMiIgbGVuZ3RoQWRqdXN0PSJzcGFjaW5nIiB0ZXh0TGVuZ3RoPSIyMzQiIHg9IjgxNCIgeT0iMjY3LjMyODEiPjYuICYjMTA0MjsmIzEwOTk7JiMxMTAzOyYjMTA4OTsmIzEwODU7JiMxMDgwOyYjMTA5MDsmIzExMDA7ICYjMTA4NDsmIzEwODY7JiMxMDg4OyYjMTA3MjsmIzEwODM7JiMxMTAwOyYjMTA4NTsmIzEwODY7LSYjMTEwMTsmIzEwOTA7JiMxMDgwOyYjMTA5NTsmIzEwNzc7JiMxMDg5OyYjMTA4MjsmIzEwODA7JiMxMDc3OyAmIzEwODc7JiMxMDg4OyYjMTA4NjsmIzEwNzM7JiMxMDgzOyYjMTA3NzsmIzEwODQ7JiMxMDk5OzwvdGV4dD48cmVjdCBmaWxsPSIjRjFGMUYxIiBoZWlnaHQ9IjMyLjg0MzgiIHJ4PSIxMi41IiByeT0iMTIuNSIgc3R5bGU9InN0cm9rZTojMTgxODE4O3N0cm9rZS13aWR0aDowLjU7IiB3aWR0aD0iMjMwIiB4PSI0MzkiIHk9IjM4My45ODQ0Ii8+PHRleHQgZmlsbD0iIzAwMDAwMCIgZm9udC1mYW1pbHk9InNhbnMtc2VyaWYiIGZvbnQtc2l6ZT0iMTIiIGxlbmd0aEFkanVzdD0ic3BhY2luZyIgdGV4dExlbmd0aD0iMjEwIiB4PSI0NDkiIHk9IjQwNS4zMjgxIj44LiAmIzEwNTY7JiMxMDcyOyYjMTA3OTsmIzEwODg7JiMxMDcyOyYjMTA3MzsmIzEwODY7JiMxMDkwOyYjMTA3MjsmIzEwOTA7JiMxMTAwOyAmIzEwODk7JiMxMDgwOyYjMTA4OTsmIzEwOTA7JiMxMDc3OyYjMTA4NDsmIzEwOTE7ICYjMTA4NzsmIzEwODg7JiMxMDc3OyYjMTA4NDsmIzEwODA7JiMxMDg4OyYjMTA4NjsmIzEwNzQ7JiMxMDcyOyYjMTA4NTsmIzEwODA7JiMxMTAzOzwvdGV4dD48cmVjdCBmaWxsPSIjRjFGMUYxIiBoZWlnaHQ9IjMyLjg0MzgiIHJ4PSIxMi41IiByeT0iMTIuNSIgc3R5bGU9InN0cm9rZTojMTgxODE4O3N0cm9rZS13aWR0aDowLjU7IiB3aWR0aD0iMTU4IiB4PSI0NzUiIHk9IjQ1Mi45ODQ0Ii8+PHRleHQgZmlsbD0iIzAwMDAwMCIgZm9udC1mYW1pbHk9InNhbnMtc2VyaWYiIGZvbnQtc2l6ZT0iMTIiIGxlbmd0aEFkanVzdD0ic3BhY2luZyIgdGV4dExlbmd0aD0iMTM4IiB4PSI0ODUiIHk9IjQ3NC4zMjgxIj45LiAmIzEwNTU7JiMxMDg4OyYjMTA4NjsmIzEwNzQ7JiMxMDc3OyYjMTA4OTsmIzEwOTA7JiMxMDgwOyAmIzEwODc7JiMxMDg4OyYjMTA3NzsmIzEwNzk7JiMxMDc3OyYjMTA4NTsmIzEwOTA7JiMxMDcyOyYjMTA5NDsmIzEwODA7JiMxMTAyOzwvdGV4dD48ZWxsaXBzZSBjeD0iNTU0IiBjeT0iNTMyLjk4NDQiIGZpbGw9Im5vbmUiIHJ4PSIxMSIgcnk9IjExIiBzdHlsZT0ic3Ryb2tlOiMyMjIyMjI7c3Ryb2tlLXdpZHRoOjE7Ii8+PGVsbGlwc2UgY3g9IjU1NCIgY3k9IjUzMi45ODQ0IiBmaWxsPSIjMjIyMjIyIiByeD0iNiIgcnk9IjYiIHN0eWxlPSJzdHJva2U6IzIyMjIyMjtzdHJva2Utd2lkdGg6MTsiLz48ZyBjbGFzcz0ibGluayIgZGF0YS1lbnRpdHktMT0ic3RhcnQiIGRhdGEtZW50aXR5LTI9IjEuICYjMTA0MjsmIzEwODk7JiMxMDkwOyYjMTA4ODsmIzEwNzc7JiMxMDkwOyYjMTA4MDsmIzEwOTA7JiMxMTAwOyYjMTA4OTsmIzExMDM7ICYjMTA4OTsgJiMxMDg4OyYjMTA5MTsmIzEwODI7JiMxMDg2OyYjMTA3NDsmIzEwODY7JiMxMDc2OyYjMTA4OTsmIzEwOTA7JiMxMDc0OyYjMTA4NjsmIzEwODQ7IiBkYXRhLXVpZD0ibG5rNCIgaWQ9Imxpbmtfc3RhcnRfMS4gJiMxMDQyOyYjMTA4OTsmIzEwOTA7JiMxMDg4OyYjMTA3NzsmIzEwOTA7JiMxMDgwOyYjMTA5MDsmIzExMDA7JiMxMDg5OyYjMTEwMzsgJiMxMDg5OyAmIzEwODg7JiMxMDkxOyYjMTA4MjsmIzEwODY7JiMxMDc0OyYjMTA4NjsmIzEwNzY7JiMxMDg5OyYjMTA5MDsmIzEwNzQ7JiMxMDg2OyYjMTA4NDsiPjxwb2x5Z29uIGZpbGw9IiMxODE4MTgiIHBvaW50cz0iNTU0LDEwNy45NDcxLDU1OCw5OC45NDcxLDU1NCwxMDIuOTQ3MSw1NTAsOTguOTQ3MSw1NTQsMTA3Ljk0NzEiIHN0eWxlPSJzdHJva2U6IzE4MTgxODtzdHJva2Utd2lkdGg6MTsiLz48cGF0aCBkPSJNNTU0LDcyLjE1ODEgQzU1NCw4Mi4xMjk5IDU1NCw5MC44MzEyIDU1NCwxMDEuOTQ3MSIgZmlsbD0ibm9uZSIgc3R5bGU9InN0cm9rZTojMTgxODE4O3N0cm9rZS13aWR0aDoxOyIvPjwvZz48ZyBjbGFzcz0ibGluayIgZGF0YS1lbnRpdHktMT0iMS4gJiMxMDQyOyYjMTA4OTsmIzEwOTA7JiMxMDg4OyYjMTA3NzsmIzEwOTA7JiMxMDgwOyYjMTA5MDsmIzExMDA7JiMxMDg5OyYjMTEwMzsgJiMxMDg5OyAmIzEwODg7JiMxMDkxOyYjMTA4MjsmIzEwODY7JiMxMDc0OyYjMTA4NjsmIzEwNzY7JiMxMDg5OyYjMTA5MDsmIzEwNzQ7JiMxMDg2OyYjMTA4NDsiIGRhdGEtZW50aXR5LTI9IjIuICYjMTA1NzsmIzEwODY7JiMxMDg5OyYjMTA5MDsmIzEwNzI7JiMxMDc0OyYjMTA4MDsmIzEwOTA7JiMxMTAwOyAmIzEwODk7JiMxMDg3OyYjMTA4MDsmIzEwODk7JiMxMDg2OyYjMTA4MjsgJiMxMDkwOyYjMTA4ODsmIzEwNzc7JiMxMDczOyYjMTA4NjsmIzEwNzQ7JiMxMDcyOyYjMTA4NTsmIzEwODA7JiMxMDgxOyIgZGF0YS11aWQ9ImxuazYiIGlkPSJsaW5rXzEuICYjMTA0MjsmIzEwODk7JiMxMDkwOyYjMTA4ODsmIzEwNzc7JiMxMDkwOyYjMTA4MDsmIzEwOTA7JiMxMTAwOyYjMTA4OTsmIzExMDM7ICYjMTA4OTsgJiMxMDg4OyYjMTA5MTsmIzEwODI7JiMxMDg2OyYjMTA3NDsmIzEwODY7JiMxMDc2OyYjMTA4OTsmIzEwOTA7JiMxMDc0OyYjMTA4NjsmIzEwODQ7XzIuICYjMTA1NzsmIzEwODY7JiMxMDg5OyYjMTA5MDsmIzEwNzI7JiMxMDc0OyYjMTA4MDsmIzEwOTA7JiMxMTAwOyAmIzEwODk7JiMxMDg3OyYjMTA4MDsmIzEwODk7JiMxMDg2OyYjMTA4MjsgJiMxMDkwOyYjMTA4ODsmIzEwNzc7JiMxMDczOyYjMTA4NjsmIzEwNzQ7JiMxMDcyOyYjMTA4NTsmIzEwODA7JiMxMDgxOyI+PHBvbHlnb24gZmlsbD0iIzE4MTgxOCIgcG9pbnRzPSI1NTQsMTc2LjU2MzgsNTU4LDE2Ny41NjM4LDU1NCwxNzEuNTYzOCw1NTAsMTY3LjU2MzgsNTU0LDE3Ni41NjM4IiBzdHlsZT0ic3Ryb2tlOiMxODE4MTg7c3Ryb2tlLXdpZHRoOjE7Ii8+PHBhdGggZD0iTTU1NCwxNDEuMDIzOSBDNTU0LDE1MS42OTMzIDU1NCwxNTkuODEzNiA1NTQsMTcwLjU2MzgiIGZpbGw9Im5vbmUiIHN0eWxlPSJzdHJva2U6IzE4MTgxODtzdHJva2Utd2lkdGg6MTsiLz48L2c+PGcgY2xhc3M9ImxpbmsiIGRhdGEtZW50aXR5LTE9IjIuICYjMTA1NzsmIzEwODY7JiMxMDg5OyYjMTA5MDsmIzEwNzI7JiMxMDc0OyYjMTA4MDsmIzEwOTA7JiMxMTAwOyAmIzEwODk7JiMxMDg3OyYjMTA4MDsmIzEwODk7JiMxMDg2OyYjMTA4MjsgJiMxMDkwOyYjMTA4ODsmIzEwNzc7JiMxMDczOyYjMTA4NjsmIzEwNzQ7JiMxMDcyOyYjMTA4NTsmIzEwODA7JiMxMDgxOyIgZGF0YS1lbnRpdHktMj0iMy4gJiMxMDU1OyYjMTA4ODsmIzEwODA7JiMxMDg2OyYjMTA3MzsmIzEwODg7JiMxMDc3OyYjMTA4OTsmIzEwOTA7JiMxMDgwOyAmIzEwODY7JiMxMDg3OyYjMTA4MDsmIzEwODk7JiMxMDcyOyYjMTA4NTsmIzEwODA7JiMxMTAzOyAmIzEwODk7JiMxMDgwOyYjMTA4OTsmIzEwOTA7JiMxMDc3OyYjMTA4NDsgJiMxMDc2OyYjMTA4ODsmIzEwOTE7JiMxMDc1OyYjMTA4MDsmIzEwOTM7ICYjMTA3MzsmIzEwNzI7JiMxMDg1OyYjMTA4MjsmIzEwODY7JiMxMDc0OyIgZGF0YS11aWQ9ImxuazgiIGlkPSJsaW5rXzIuICYjMTA1NzsmIzEwODY7JiMxMDg5OyYjMTA5MDsmIzEwNzI7JiMxMDc0OyYjMTA4MDsmIzEwOTA7JiMxMTAwOyAmIzEwODk7JiMxMDg3OyYjMTA4MDsmIzEwODk7JiMxMDg2OyYjMTA4MjsgJiMxMDkwOyYjMTA4ODsmIzEwNzc7JiMxMDczOyYjMTA4NjsmIzEwNzQ7JiMxMDcyOyYjMTA4NTsmIzEwODA7JiMxMDgxO18zLiAmIzEwNTU7JiMxMDg4OyYjMTA4MDsmIzEwODY7JiMxMDczOyYjMTA4ODsmIzEwNzc7JiMxMDg5OyYjMTA5MDsmIzEwODA7ICYjMTA4NjsmIzEwODc7JiMxMDgwOyYjMTA4OTsmIzEwNzI7JiMxMDg1OyYjMTA4MDsmIzExMDM7ICYjMTA4OTsmIzEwODA7JiMxMDg5OyYjMTA5MDsmIzEwNzc7JiMxMDg0OyAmIzEwNzY7JiMxMDg4OyYjMTA5MTsmIzEwNzU7JiMxMDgwOyYjMTA5MzsgJiMxMDczOyYjMTA3MjsmIzEwODU7JiMxMDgyOyYjMTA4NjsmIzEwNzQ7Ij48cG9seWdvbiBmaWxsPSIjMTgxODE4IiBwb2ludHM9IjIzOS43LDI0NS45NzEyLDI0OS4yMjgyLDI0OC40NjM2LDI0NC42MzQyLDI0NS4xNjI5LDI0Ny45MzUsMjQwLjU2ODksMjM5LjcsMjQ1Ljk3MTIiIHN0eWxlPSJzdHJva2U6IzE4MTgxODtzdHJva2Utd2lkdGg6MTsiLz48cGF0aCBkPSJNNDU5LjEzOTIsMjEwLjAyMzkgQzM5My4xODIyLDIyMC44Mjg2IDMxMS41NDI5LDIzNC4yMDIzIDI0NS42MjExLDI0NS4wMDEyIiBmaWxsPSJub25lIiBzdHlsZT0ic3Ryb2tlOiMxODE4MTg7c3Ryb2tlLXdpZHRoOjE7Ii8+PC9nPjxnIGNsYXNzPSJsaW5rIiBkYXRhLWVudGl0eS0xPSIzLiAmIzEwNTU7JiMxMDg4OyYjMTA4MDsmIzEwODY7JiMxMDczOyYjMTA4ODsmIzEwNzc7JiMxMDg5OyYjMTA5MDsmIzEwODA7ICYjMTA4NjsmIzEwODc7JiMxMDgwOyYjMTA4OTsmIzEwNzI7JiMxMDg1OyYjMTA4MDsmIzExMDM7ICYjMTA4OTsmIzEwODA7JiMxMDg5OyYjMTA5MDsmIzEwNzc7JiMxMDg0OyAmIzEwNzY7JiMxMDg4OyYjMTA5MTsmIzEwNzU7JiMxMDgwOyYjMTA5MzsgJiMxMDczOyYjMTA3MjsmIzEwODU7JiMxMDgyOyYjMTA4NjsmIzEwNzQ7IiBkYXRhLWVudGl0eS0yPSI3LiAmIzEwNTQ7JiMxMDczOyYjMTA4OTsmIzEwOTE7JiMxMDc2OyYjMTA4MDsmIzEwOTA7JiMxMTAwOyAmIzEwODc7JiMxMDkxOyYjMTA5MDsmIzEwODA7ICYjMTA4ODsmIzEwNzc7JiMxMDk2OyYjMTA3NzsmIzEwODU7JiMxMDgwOyYjMTEwMzsgJiMxMDg3OyYjMTA4ODsmIzEwODY7JiMxMDczOyYjMTA4MzsmIzEwNzc7JiMxMDg0OyIgZGF0YS11aWQ9ImxuazEwIiBpZD0ibGlua18zLiAmIzEwNTU7JiMxMDg4OyYjMTA4MDsmIzEwODY7JiMxMDczOyYjMTA4ODsmIzEwNzc7JiMxMDg5OyYjMTA5MDsmIzEwODA7ICYjMTA4NjsmIzEwODc7JiMxMDgwOyYjMTA4OTsmIzEwNzI7JiMxMDg1OyYjMTA4MDsmIzExMDM7ICYjMTA4OTsmIzEwODA7JiMxMDg5OyYjMTA5MDsmIzEwNzc7JiMxMDg0OyAmIzEwNzY7JiMxMDg4OyYjMTA5MTsmIzEwNzU7JiMxMDgwOyYjMTA5MzsgJiMxMDczOyYjMTA3MjsmIzEwODU7JiMxMDgyOyYjMTA4NjsmIzEwNzQ7XzcuICYjMTA1NDsmIzEwNzM7JiMxMDg5OyYjMTA5MTsmIzEwNzY7JiMxMDgwOyYjMTA5MDsmIzExMDA7ICYjMTA4NzsmIzEwOTE7JiMxMDkwOyYjMTA4MDsgJiMxMDg4OyYjMTA3NzsmIzEwOTY7JiMxMDc3OyYjMTA4NTsmIzEwODA7JiMxMTAzOyAmIzEwODc7JiMxMDg4OyYjMTA4NjsmIzEwNzM7JiMxMDgzOyYjMTA3NzsmIzEwODQ7Ij48cG9seWdvbiBmaWxsPSIjMTgxODE4IiBwb2ludHM9IjQ1OS4zLDMxNC45NzEyLDQ1MS4wNjUsMzA5LjU2ODksNDU0LjM2NTgsMzE0LjE2MjksNDQ5Ljc3MTgsMzE3LjQ2MzYsNDU5LjMsMzE0Ljk3MTIiIHN0eWxlPSJzdHJva2U6IzE4MTgxODtzdHJva2Utd2lkdGg6MTsiLz48cGF0aCBkPSJNMjM5Ljg2MDgsMjc5LjAyMzkgQzMwNS44MTc4LDI4OS44Mjg2IDM4Ny40NTcxLDMwMy4yMDIzIDQ1My4zNzg5LDMxNC4wMDEyIiBmaWxsPSJub25lIiBzdHlsZT0ic3Ryb2tlOiMxODE4MTg7c3Ryb2tlLXdpZHRoOjE7Ii8+PC9nPjxnIGNsYXNzPSJsaW5rIiBkYXRhLWVudGl0eS0xPSIyLiAmIzEwNTc7JiMxMDg2OyYjMTA4OTsmIzEwOTA7JiMxMDcyOyYjMTA3NDsmIzEwODA7JiMxMDkwOyYjMTEwMDsgJiMxMDg5OyYjMTA4NzsmIzEwODA7JiMxMDg5OyYjMTA4NjsmIzEwODI7ICYjMTA5MDsmIzEwODg7JiMxMDc3OyYjMTA3MzsmIzEwODY7JiMxMDc0OyYjMTA3MjsmIzEwODU7JiMxMDgwOyYjMTA4MTsiIGRhdGEtZW50aXR5LTI9IjQuICYjMTA1NzsmIzEwODY7JiMxMDg5OyYjMTA5MDsmIzEwNzI7JiMxMDc0OyYjMTA4MDsmIzEwOTA7JiMxMTAwOyAmIzEwODY7JiMxMDkwOyYjMTA4MzsmIzEwODA7JiMxMDk1OyYjMTA4MDsmIzEwOTA7JiMxMDc3OyYjMTA4MzsmIzExMDA7JiMxMDg1OyYjMTA5OTsmIzEwNzc7ICYjMTA5NTsmIzEwNzc7JiMxMDg4OyYjMTA5MDsmIzEwOTk7ICYjMTA4OTsmIzEwODA7JiMxMDg5OyYjMTA5MDsmIzEwNzc7JiMxMDg0OyIgZGF0YS11aWQ9ImxuazEyIiBpZD0ibGlua18yLiAmIzEwNTc7JiMxMDg2OyYjMTA4OTsmIzEwOTA7JiMxMDcyOyYjMTA3NDsmIzEwODA7JiMxMDkwOyYjMTEwMDsgJiMxMDg5OyYjMTA4NzsmIzEwODA7JiMxMDg5OyYjMTA4NjsmIzEwODI7ICYjMTA5MDsmIzEwODg7JiMxMDc3OyYjMTA3MzsmIzEwODY7JiMxMDc0OyYjMTA3MjsmIzEwODU7JiMxMDgwOyYjMTA4MTtfNC4gJiMxMDU3OyYjMTA4NjsmIzEwODk7JiMxMDkwOyYjMTA3MjsmIzEwNzQ7JiMxMDgwOyYjMTA5MDsmIzExMDA7ICYjMTA4NjsmIzEwOTA7JiMxMDgzOyYjMTA4MDsmIzEwOTU7JiMxMDgwOyYjMTA5MDsmIzEwNzc7JiMxMDgzOyYjMTEwMDsmIzEwODU7JiMxMDk5OyYjMTA3NzsgJiMxMDk1OyYjMTA3NzsmIzEwODg7JiMxMDkwOyYjMTA5OTsgJiMxMDg5OyYjMTA4MDsmIzEwODk7JiMxMDkwOyYjMTA3NzsmIzEwODQ7Ij48cG9seWdvbiBmaWxsPSIjMTgxODE4IiBwb2ludHM9IjQ1OC4yNjc1LDI0NS43OTcsNDY4LjA4OTUsMjQ1LjA3MDgsNDYyLjY3NDQsMjQzLjQzNDksNDY0LjMxMDIsMjM4LjAxOTgsNDU4LjI2NzUsMjQ1Ljc5NyIgc3R5bGU9InN0cm9rZTojMTgxODE4O3N0cm9rZS13aWR0aDoxOyIvPjxwYXRoIGQ9Ik01MjUuMDA4MywyMTAuMDIzOSBDNTA0Ljk1ODUsMjIwLjc3MDYgNDgzLjY2NTEsMjMyLjE4MzkgNDYzLjU1NTcsMjQyLjk2MjUiIGZpbGw9Im5vbmUiIHN0eWxlPSJzdHJva2U6IzE4MTgxODtzdHJva2Utd2lkdGg6MTsiLz48L2c+PGcgY2xhc3M9ImxpbmsiIGRhdGEtZW50aXR5LTE9IjQuICYjMTA1NzsmIzEwODY7JiMxMDg5OyYjMTA5MDsmIzEwNzI7JiMxMDc0OyYjMTA4MDsmIzEwOTA7JiMxMTAwOyAmIzEwODY7JiMxMDkwOyYjMTA4MzsmIzEwODA7JiMxMDk1OyYjMTA4MDsmIzEwOTA7JiMxMDc3OyYjMTA4MzsmIzExMDA7JiMxMDg1OyYjMTA5OTsmIzEwNzc7ICYjMTA5NTsmIzEwNzc7JiMxMDg4OyYjMTA5MDsmIzEwOTk7ICYjMTA4OTsmIzEwODA7JiMxMDg5OyYjMTA5MDsmIzEwNzc7JiMxMDg0OyIgZGF0YS1lbnRpdHktMj0iNy4gJiMxMDU0OyYjMTA3MzsmIzEwODk7JiMxMDkxOyYjMTA3NjsmIzEwODA7JiMxMDkwOyYjMTEwMDsgJiMxMDg3OyYjMTA5MTsmIzEwOTA7JiMxMDgwOyAmIzEwODg7JiMxMDc3OyYjMTA5NjsmIzEwNzc7JiMxMDg1OyYjMTA4MDsmIzExMDM7ICYjMTA4NzsmIzEwODg7JiMxMDg2OyYjMTA3MzsmIzEwODM7JiMxMDc3OyYjMTA4NDsiIGRhdGEtdWlkPSJsbmsxMyIgaWQ9ImxpbmtfNC4gJiMxMDU3OyYjMTA4NjsmIzEwODk7JiMxMDkwOyYjMTA3MjsmIzEwNzQ7JiMxMDgwOyYjMTA5MDsmIzExMDA7ICYjMTA4NjsmIzEwOTA7JiMxMDgzOyYjMTA4MDsmIzEwOTU7JiMxMDgwOyYjMTA5MDsmIzEwNzc7JiMxMDgzOyYjMTEwMDsmIzEwODU7JiMxMDk5OyYjMTA3NzsgJiMxMDk1OyYjMTA3NzsmIzEwODg7JiMxMDkwOyYjMTA5OTsgJiMxMDg5OyYjMTA4MDsmIzEwODk7JiMxMDkwOyYjMTA3NzsmIzEwODQ7XzcuICYjMTA1NDsmIzEwNzM7JiMxMDg5OyYjMTA5MTsmIzEwNzY7JiMxMDgwOyYjMTA5MDsmIzExMDA7ICYjMTA4NzsmIzEwOTE7JiMxMDkwOyYjMTA4MDsgJiMxMDg4OyYjMTA3NzsmIzEwOTY7JiMxMDc3OyYjMTA4NTsmIzEwODA7JiMxMTAzOyAmIzEwODc7JiMxMDg4OyYjMTA4NjsmIzEwNzM7JiMxMDgzOyYjMTA3NzsmIzEwODQ7Ij48cG9seWdvbiBmaWxsPSIjMTgxODE4IiBwb2ludHM9IjUyNC43MzI1LDMxNC43OTcsNTE4LjY4OTgsMzA3LjAxOTgsNTIwLjMyNTYsMzEyLjQzNDksNTE0LjkxMDUsMzE0LjA3MDgsNTI0LjczMjUsMzE0Ljc5NyIgc3R5bGU9InN0cm9rZTojMTgxODE4O3N0cm9rZS13aWR0aDoxOyIvPjxwYXRoIGQ9Ik00NTcuOTkxNywyNzkuMDIzOSBDNDc4LjA0MTUsMjg5Ljc3MDYgNDk5LjMzNDksMzAxLjE4MzkgNTE5LjQ0NDMsMzExLjk2MjUiIGZpbGw9Im5vbmUiIHN0eWxlPSJzdHJva2U6IzE4MTgxODtzdHJva2Utd2lkdGg6MTsiLz48L2c+PGcgY2xhc3M9ImxpbmsiIGRhdGEtZW50aXR5LTE9IjIuICYjMTA1NzsmIzEwODY7JiMxMDg5OyYjMTA5MDsmIzEwNzI7JiMxMDc0OyYjMTA4MDsmIzEwOTA7JiMxMTAwOyAmIzEwODk7JiMxMDg3OyYjMTA4MDsmIzEwODk7JiMxMDg2OyYjMTA4MjsgJiMxMDkwOyYjMTA4ODsmIzEwNzc7JiMxMDczOyYjMTA4NjsmIzEwNzQ7JiMxMDcyOyYjMTA4NTsmIzEwODA7JiMxMDgxOyIgZGF0YS1lbnRpdHktMj0iNS4gJiMxMDU1OyYjMTA4ODsmIzEwODY7JiMxMDgyOyYjMTA4NjsmIzEwODU7JiMxMDg5OyYjMTA5MTsmIzEwODM7JiMxMTAwOyYjMTA5MDsmIzEwODA7JiMxMDg4OyYjMTA4NjsmIzEwNzQ7JiMxMDcyOyYjMTA5MDsmIzExMDA7JiMxMDg5OyYjMTEwMzsgJiMxMDkxOyAmIzExMDI7JiMxMDg4OyYjMTA4MDsmIzEwODk7JiMxMDkwOyYjMTA3MjsiIGRhdGEtdWlkPSJsbmsxNSIgaWQ9ImxpbmtfMi4gJiMxMDU3OyYjMTA4NjsmIzEwODk7JiMxMDkwOyYjMTA3MjsmIzEwNzQ7JiMxMDgwOyYjMTA5MDsmIzExMDA7ICYjMTA4OTsmIzEwODc7JiMxMDgwOyYjMTA4OTsmIzEwODY7JiMxMDgyOyAmIzEwOTA7JiMxMDg4OyYjMTA3NzsmIzEwNzM7JiMxMDg2OyYjMTA3NDsmIzEwNzI7JiMxMDg1OyYjMTA4MDsmIzEwODE7XzUuICYjMTA1NTsmIzEwODg7JiMxMDg2OyYjMTA4MjsmIzEwODY7JiMxMDg1OyYjMTA4OTsmIzEwOTE7JiMxMDgzOyYjMTEwMDsmIzEwOTA7JiMxMDgwOyYjMTA4ODsmIzEwODY7JiMxMDc0OyYjMTA3MjsmIzEwOTA7JiMxMTAwOyYjMTA4OTsmIzExMDM7ICYjMTA5MTsgJiMxMTAyOyYjMTA4ODsmIzEwODA7JiMxMDg5OyYjMTA5MDsmIzEwNzI7Ij48cG9seWdvbiBmaWxsPSIjMTgxODE4IiBwb2ludHM9IjY1MC40OTg0LDI0NS43OTcsNjQ0LjQzLDIzOC4wMzk4LDY0Ni4wODM3LDI0My40NDk1LDY0MC42NzQsMjQ1LjEwMzMsNjUwLjQ5ODQsMjQ1Ljc5NyIgc3R5bGU9InN0cm9rZTojMTgxODE4O3N0cm9rZS13aWR0aDoxOyIvPjxwYXRoIGQ9Ik01ODMuMjIzNiwyMTAuMDIzOSBDNjAzLjQzMzgsMjIwLjc3MDYgNjI0LjkzMDYsMjMyLjIwMTQgNjQ1LjIwMDgsMjQyLjk4IiBmaWxsPSJub25lIiBzdHlsZT0ic3Ryb2tlOiMxODE4MTg7c3Ryb2tlLXdpZHRoOjE7Ii8+PC9nPjxnIGNsYXNzPSJsaW5rIiBkYXRhLWVudGl0eS0xPSI1LiAmIzEwNTU7JiMxMDg4OyYjMTA4NjsmIzEwODI7JiMxMDg2OyYjMTA4NTsmIzEwODk7JiMxMDkxOyYjMTA4MzsmIzExMDA7JiMxMDkwOyYjMTA4MDsmIzEwODg7JiMxMDg2OyYjMTA3NDsmIzEwNzI7JiMxMDkwOyYjMTEwMDsmIzEwODk7JiMxMTAzOyAmIzEwOTE7ICYjMTEwMjsmIzEwODg7JiMxMDgwOyYjMTA4OTsmIzEwOTA7JiMxMDcyOyIgZGF0YS1lbnRpdHktMj0iNy4gJiMxMDU0OyYjMTA3MzsmIzEwODk7JiMxMDkxOyYjMTA3NjsmIzEwODA7JiMxMDkwOyYjMTEwMDsgJiMxMDg3OyYjMTA5MTsmIzEwOTA7JiMxMDgwOyAmIzEwODg7JiMxMDc3OyYjMTA5NjsmIzEwNzc7JiMxMDg1OyYjMTA4MDsmIzExMDM7ICYjMTA4NzsmIzEwODg7JiMxMDg2OyYjMTA3MzsmIzEwODM7JiMxMDc3OyYjMTA4NDsiIGRhdGEtdWlkPSJsbmsxNiIgaWQ9ImxpbmtfNS4gJiMxMDU1OyYjMTA4ODsmIzEwODY7JiMxMDgyOyYjMTA4NjsmIzEwODU7JiMxMDg5OyYjMTA5MTsmIzEwODM7JiMxMTAwOyYjMTA5MDsmIzEwODA7JiMxMDg4OyYjMTA4NjsmIzEwNzQ7JiMxMDcyOyYjMTA5MDsmIzExMDA7JiMxMDg5OyYjMTEwMzsgJiMxMDkxOyAmIzExMDI7JiMxMDg4OyYjMTA4MDsmIzEwODk7JiMxMDkwOyYjMTA3MjtfNy4gJiMxMDU0OyYjMTA3MzsmIzEwODk7JiMxMDkxOyYjMTA3NjsmIzEwODA7JiMxMDkwOyYjMTEwMDsgJiMxMDg3OyYjMTA5MTsmIzEwOTA7JiMxMDgwOyAmIzEwODg7JiMxMDc3OyYjMTA5NjsmIzEwNzc7JiMxMDg1OyYjMTA4MDsmIzExMDM7ICYjMTA4NzsmIzEwODg7JiMxMDg2OyYjMTA3MzsmIzEwODM7JiMxMDc3OyYjMTA4NDsiPjxwb2x5Z29uIGZpbGw9IiMxODE4MTgiIHBvaW50cz0iNTgzLjUwMTYsMzE0Ljc5Nyw1OTMuMzI2LDMxNC4xMDMzLDU4Ny45MTYzLDMxMi40NDk1LDU4OS41NywzMDcuMDM5OCw1ODMuNTAxNiwzMTQuNzk3IiBzdHlsZT0ic3Ryb2tlOiMxODE4MTg7c3Ryb2tlLXdpZHRoOjE7Ii8+PHBhdGggZD0iTTY1MC43NzY0LDI3OS4wMjM5IEM2MzAuNTY2MiwyODkuNzcwNiA2MDkuMDY5NCwzMDEuMjAxNCA1ODguNzk5MiwzMTEuOTgiIGZpbGw9Im5vbmUiIHN0eWxlPSJzdHJva2U6IzE4MTgxODtzdHJva2Utd2lkdGg6MTsiLz48L2c+PGcgY2xhc3M9ImxpbmsiIGRhdGEtZW50aXR5LTE9IjIuICYjMTA1NzsmIzEwODY7JiMxMDg5OyYjMTA5MDsmIzEwNzI7JiMxMDc0OyYjMTA4MDsmIzEwOTA7JiMxMTAwOyAmIzEwODk7JiMxMDg3OyYjMTA4MDsmIzEwODk7JiMxMDg2OyYjMTA4MjsgJiMxMDkwOyYjMTA4ODsmIzEwNzc7JiMxMDczOyYjMTA4NjsmIzEwNzQ7JiMxMDcyOyYjMTA4NTsmIzEwODA7JiMxMDgxOyIgZGF0YS1lbnRpdHktMj0iNi4gJiMxMDQyOyYjMTA5OTsmIzExMDM7JiMxMDg5OyYjMTA4NTsmIzEwODA7JiMxMDkwOyYjMTEwMDsgJiMxMDg0OyYjMTA4NjsmIzEwODg7JiMxMDcyOyYjMTA4MzsmIzExMDA7JiMxMDg1OyYjMTA4NjstJiMxMTAxOyYjMTA5MDsmIzEwODA7JiMxMDk1OyYjMTA3NzsmIzEwODk7JiMxMDgyOyYjMTA4MDsmIzEwNzc7ICYjMTA4NzsmIzEwODg7JiMxMDg2OyYjMTA3MzsmIzEwODM7JiMxMDc3OyYjMTA4NDsmIzEwOTk7IiBkYXRhLXVpZD0ibG5rMTgiIGlkPSJsaW5rXzIuICYjMTA1NzsmIzEwODY7JiMxMDg5OyYjMTA5MDsmIzEwNzI7JiMxMDc0OyYjMTA4MDsmIzEwOTA7JiMxMTAwOyAmIzEwODk7JiMxMDg3OyYjMTA4MDsmIzEwODk7JiMxMDg2OyYjMTA4MjsgJiMxMDkwOyYjMTA4ODsmIzEwNzc7JiMxMDczOyYjMTA4NjsmIzEwNzQ7JiMxMDcyOyYjMTA4NTsmIzEwODA7JiMxMDgxO182LiAmIzEwNDI7JiMxMDk5OyYjMTEwMzsmIzEwODk7JiMxMDg1OyYjMTA4MDsmIzEwOTA7JiMxMTAwOyAmIzEwODQ7JiMxMDg2OyYjMTA4ODsmIzEwNzI7JiMxMDgzOyYjMTEwMDsmIzEwODU7JiMxMDg2Oy0mIzExMDE7JiMxMDkwOyYjMTA4MDsmIzEwOTU7JiMxMDc3OyYjMTA4OTsmIzEwODI7JiMxMDgwOyYjMTA3NzsgJiMxMDg3OyYjMTA4ODsmIzEwODY7JiMxMDczOyYjMTA4MzsmIzEwNzc7JiMxMDg0OyYjMTA5OTsiPjxwb2x5Z29uIGZpbGw9IiMxODE4MTgiIHBvaW50cz0iODQzLjcwOTMsMjQ1Ljk3MTIsODM1LjU0ODEsMjQwLjQ1ODEsODM4Ljc4NjQsMjQ1LjA5NjMsODM0LjE0ODIsMjQ4LjMzNDcsODQzLjcwOTMsMjQ1Ljk3MTIiIHN0eWxlPSJzdHJva2U6IzE4MTgxODtzdHJva2Utd2lkdGg6MTsiLz48cGF0aCBkPSJNNjQxLjQzOSwyMTAuMDIzOSBDNzAyLjIzNTUsMjIwLjgyODYgNzc3LjAzNzgsMjM0LjEyMjQgODM3LjgwMTksMjQ0LjkyMTMiIGZpbGw9Im5vbmUiIHN0eWxlPSJzdHJva2U6IzE4MTgxODtzdHJva2Utd2lkdGg6MTsiLz48L2c+PGcgY2xhc3M9ImxpbmsiIGRhdGEtZW50aXR5LTE9IjYuICYjMTA0MjsmIzEwOTk7JiMxMTAzOyYjMTA4OTsmIzEwODU7JiMxMDgwOyYjMTA5MDsmIzExMDA7ICYjMTA4NDsmIzEwODY7JiMxMDg4OyYjMTA3MjsmIzEwODM7JiMxMTAwOyYjMTA4NTsmIzEwODY7LSYjMTEwMTsmIzEwOTA7JiMxMDgwOyYjMTA5NTsmIzEwNzc7JiMxMDg5OyYjMTA4MjsmIzEwODA7JiMxMDc3OyAmIzEwODc7JiMxMDg4OyYjMTA4NjsmIzEwNzM7JiMxMDgzOyYjMTA3NzsmIzEwODQ7JiMxMDk5OyIgZGF0YS1lbnRpdHktMj0iNy4gJiMxMDU0OyYjMTA3MzsmIzEwODk7JiMxMDkxOyYjMTA3NjsmIzEwODA7JiMxMDkwOyYjMTEwMDsgJiMxMDg3OyYjMTA5MTsmIzEwOTA7JiMxMDgwOyAmIzEwODg7JiMxMDc3OyYjMTA5NjsmIzEwNzc7JiMxMDg1OyYjMTA4MDsmIzExMDM7ICYjMTA4NzsmIzEwODg7JiMxMDg2OyYjMTA3MzsmIzEwODM7JiMxMDc3OyYjMTA4NDsiIGRhdGEtdWlkPSJsbmsxOSIgaWQ9ImxpbmtfNi4gJiMxMDQyOyYjMTA5OTsmIzExMDM7JiMxMDg5OyYjMTA4NTsmIzEwODA7JiMxMDkwOyYjMTEwMDsgJiMxMDg0OyYjMTA4NjsmIzEwODg7JiMxMDcyOyYjMTA4MzsmIzExMDA7JiMxMDg1OyYjMTA4NjstJiMxMTAxOyYjMTA5MDsmIzEwODA7JiMxMDk1OyYjMTA3NzsmIzEwODk7JiMxMDgyOyYjMTA4MDsmIzEwNzc7ICYjMTA4NzsmIzEwODg7JiMxMDg2OyYjMTA3MzsmIzEwODM7JiMxMDc3OyYjMTA4NDsmIzEwOTk7XzcuICYjMTA1NDsmIzEwNzM7JiMxMDg5OyYjMTA5MTsmIzEwNzY7JiMxMDgwOyYjMTA5MDsmIzExMDA7ICYjMTA4NzsmIzEwOTE7JiMxMDkwOyYjMTA4MDsgJiMxMDg4OyYjMTA3NzsmIzEwOTY7JiMxMDc3OyYjMTA4NTsmIzEwODA7JiMxMTAzOyAmIzEwODc7JiMxMDg4OyYjMTA4NjsmIzEwNzM7JiMxMDgzOyYjMTA3NzsmIzEwODQ7Ij48cG9seWdvbiBmaWxsPSIjMTgxODE4IiBwb2ludHM9IjY0MS4yOTA3LDMxNC45NzEyLDY1MC44NTE4LDMxNy4zMzQ3LDY0Ni4yMTM2LDMxNC4wOTYzLDY0OS40NTE5LDMwOS40NTgxLDY0MS4yOTA3LDMxNC45NzEyIiBzdHlsZT0ic3Ryb2tlOiMxODE4MTg7c3Ryb2tlLXdpZHRoOjE7Ii8+PHBhdGggZD0iTTg0My41NjEsMjc5LjAyMzkgQzc4Mi43NjQ1LDI4OS44Mjg2IDcwNy45NjIyLDMwMy4xMjI0IDY0Ny4xOTgxLDMxMy45MjEzIiBmaWxsPSJub25lIiBzdHlsZT0ic3Ryb2tlOiMxODE4MTg7c3Ryb2tlLXdpZHRoOjE7Ii8+PC9nPjxnIGNsYXNzPSJsaW5rIiBkYXRhLWVudGl0eS0xPSI3LiAmIzEwNTQ7JiMxMDczOyYjMTA4OTsmIzEwOTE7JiMxMDc2OyYjMTA4MDsmIzEwOTA7JiMxMTAwOyAmIzEwODc7JiMxMDkxOyYjMTA5MDsmIzEwODA7ICYjMTA4ODsmIzEwNzc7JiMxMDk2OyYjMTA3NzsmIzEwODU7JiMxMDgwOyYjMTEwMzsgJiMxMDg3OyYjMTA4ODsmIzEwODY7JiMxMDczOyYjMTA4MzsmIzEwNzc7JiMxMDg0OyIgZGF0YS1lbnRpdHktMj0iOC4gJiMxMDU2OyYjMTA3MjsmIzEwNzk7JiMxMDg4OyYjMTA3MjsmIzEwNzM7JiMxMDg2OyYjMTA5MDsmIzEwNzI7JiMxMDkwOyYjMTEwMDsgJiMxMDg5OyYjMTA4MDsmIzEwODk7JiMxMDkwOyYjMTA3NzsmIzEwODQ7JiMxMDkxOyAmIzEwODc7JiMxMDg4OyYjMTA3NzsmIzEwODQ7JiMxMDgwOyYjMTA4ODsmIzEwODY7JiMxMDc0OyYjMTA3MjsmIzEwODU7JiMxMDgwOyYjMTEwMzsiIGRhdGEtdWlkPSJsbmsyMSIgaWQ9ImxpbmtfNy4gJiMxMDU0OyYjMTA3MzsmIzEwODk7JiMxMDkxOyYjMTA3NjsmIzEwODA7JiMxMDkwOyYjMTEwMDsgJiMxMDg3OyYjMTA5MTsmIzEwOTA7JiMxMDgwOyAmIzEwODg7JiMxMDc3OyYjMTA5NjsmIzEwNzc7JiMxMDg1OyYjMTA4MDsmIzExMDM7ICYjMTA4NzsmIzEwODg7JiMxMDg2OyYjMTA3MzsmIzEwODM7JiMxMDc3OyYjMTA4NDtfOC4gJiMxMDU2OyYjMTA3MjsmIzEwNzk7JiMxMDg4OyYjMTA3MjsmIzEwNzM7JiMxMDg2OyYjMTA5MDsmIzEwNzI7JiMxMDkwOyYjMTEwMDsgJiMxMDg5OyYjMTA4MDsmIzEwODk7JiMxMDkwOyYjMTA3NzsmIzEwODQ7JiMxMDkxOyAmIzEwODc7JiMxMDg4OyYjMTA3NzsmIzEwODQ7JiMxMDgwOyYjMTA4ODsmIzEwODY7JiMxMDc0OyYjMTA3MjsmIzEwODU7JiMxMDgwOyYjMTEwMzsiPjxwb2x5Z29uIGZpbGw9IiMxODE4MTgiIHBvaW50cz0iNTU0LDM4My41NjM4LDU1OCwzNzQuNTYzOCw1NTQsMzc4LjU2MzgsNTUwLDM3NC41NjM4LDU1NCwzODMuNTYzOCIgc3R5bGU9InN0cm9rZTojMTgxODE4O3N0cm9rZS13aWR0aDoxOyIvPjxwYXRoIGQ9Ik01NTQsMzQ4LjAyMzkgQzU1NCwzNTguNjkzMyA1NTQsMzY2LjgxMzYgNTU0LDM3Ny41NjM4IiBmaWxsPSJub25lIiBzdHlsZT0ic3Ryb2tlOiMxODE4MTg7c3Ryb2tlLXdpZHRoOjE7Ii8+PC9nPjxnIGNsYXNzPSJsaW5rIiBkYXRhLWVudGl0eS0xPSI4LiAmIzEwNTY7JiMxMDcyOyYjMTA3OTsmIzEwODg7JiMxMDcyOyYjMTA3MzsmIzEwODY7JiMxMDkwOyYjMTA3MjsmIzEwOTA7JiMxMTAwOyAmIzEwODk7JiMxMDgwOyYjMTA4OTsmIzEwOTA7JiMxMDc3OyYjMTA4NDsmIzEwOTE7ICYjMTA4NzsmIzEwODg7JiMxMDc3OyYjMTA4NDsmIzEwODA7JiMxMDg4OyYjMTA4NjsmIzEwNzQ7JiMxMDcyOyYjMTA4NTsmIzEwODA7JiMxMTAzOyIgZGF0YS1lbnRpdHktMj0iOS4gJiMxMDU1OyYjMTA4ODsmIzEwODY7JiMxMDc0OyYjMTA3NzsmIzEwODk7JiMxMDkwOyYjMTA4MDsgJiMxMDg3OyYjMTA4ODsmIzEwNzc7JiMxMDc5OyYjMTA3NzsmIzEwODU7JiMxMDkwOyYjMTA3MjsmIzEwOTQ7JiMxMDgwOyYjMTEwMjsiIGRhdGEtdWlkPSJsbmsyMyIgaWQ9ImxpbmtfOC4gJiMxMDU2OyYjMTA3MjsmIzEwNzk7JiMxMDg4OyYjMTA3MjsmIzEwNzM7JiMxMDg2OyYjMTA5MDsmIzEwNzI7JiMxMDkwOyYjMTEwMDsgJiMxMDg5OyYjMTA4MDsmIzEwODk7JiMxMDkwOyYjMTA3NzsmIzEwODQ7JiMxMDkxOyAmIzEwODc7JiMxMDg4OyYjMTA3NzsmIzEwODQ7JiMxMDgwOyYjMTA4ODsmIzEwODY7JiMxMDc0OyYjMTA3MjsmIzEwODU7JiMxMDgwOyYjMTEwMztfOS4gJiMxMDU1OyYjMTA4ODsmIzEwODY7JiMxMDc0OyYjMTA3NzsmIzEwODk7JiMxMDkwOyYjMTA4MDsgJiMxMDg3OyYjMTA4ODsmIzEwNzc7JiMxMDc5OyYjMTA3NzsmIzEwODU7JiMxMDkwOyYjMTA3MjsmIzEwOTQ7JiMxMDgwOyYjMTEwMjsiPjxwb2x5Z29uIGZpbGw9IiMxODE4MTgiIHBvaW50cz0iNTU0LDQ1Mi41NjM4LDU1OCw0NDMuNTYzOCw1NTQsNDQ3LjU2MzgsNTUwLDQ0My41NjM4LDU1NCw0NTIuNTYzOCIgc3R5bGU9InN0cm9rZTojMTgxODE4O3N0cm9rZS13aWR0aDoxOyIvPjxwYXRoIGQ9Ik01NTQsNDE3LjAyMzkgQzU1NCw0MjcuNjkzMyA1NTQsNDM1LjgxMzYgNTU0LDQ0Ni41NjM4IiBmaWxsPSJub25lIiBzdHlsZT0ic3Ryb2tlOiMxODE4MTg7c3Ryb2tlLXdpZHRoOjE7Ii8+PC9nPjxnIGNsYXNzPSJsaW5rIiBkYXRhLWVudGl0eS0xPSI5LiAmIzEwNTU7JiMxMDg4OyYjMTA4NjsmIzEwNzQ7JiMxMDc3OyYjMTA4OTsmIzEwOTA7JiMxMDgwOyAmIzEwODc7JiMxMDg4OyYjMTA3NzsmIzEwNzk7JiMxMDc3OyYjMTA4NTsmIzEwOTA7JiMxMDcyOyYjMTA5NDsmIzEwODA7JiMxMTAyOyIgZGF0YS1lbnRpdHktMj0iZW5kIiBkYXRhLXVpZD0ibG5rMjUiIGlkPSJsaW5rXzkuICYjMTA1NTsmIzEwODg7JiMxMDg2OyYjMTA3NDsmIzEwNzc7JiMxMDg5OyYjMTA5MDsmIzEwODA7ICYjMTA4NzsmIzEwODg7JiMxMDc3OyYjMTA3OTsmIzEwNzc7JiMxMDg1OyYjMTA5MDsmIzEwNzI7JiMxMDk0OyYjMTA4MDsmIzExMDI7X2VuZCI+PHBvbHlnb24gZmlsbD0iIzE4MTgxOCIgcG9pbnRzPSI1NTQsNTIxLjk0NTUsNTU4LDUxMi45NDU1LDU1NCw1MTYuOTQ1NSw1NTAsNTEyLjk0NTUsNTU0LDUyMS45NDU1IiBzdHlsZT0ic3Ryb2tlOiMxODE4MTg7c3Ryb2tlLXdpZHRoOjE7Ii8+PHBhdGggZD0iTTU1NCw0ODYuMjU1OCBDNTU0LDQ5Ny4zOTM4IDU1NCw1MDYuMDQxNCA1NTQsNTE1Ljk0NTUiIGZpbGw9Im5vbmUiIHN0eWxlPSJzdHJva2U6IzE4MTgxODtzdHJva2Utd2lkdGg6MTsiLz48L2c+PCEtLVNSQz1bblBKOUpXOTE0OFJseW5HYjlwMjFINzZ6LTJ2cDhDTzRyRVh1eUNRME1tOTJ1aU1Sb25rbUpIWXN1SE1ndGlZX2dqNDlZSFU1WDBFWGZ4bC1oX3hnd2t3am9vbF9qRTlKc1ItemswZGVrYjhBXzdGVnl1QXBlNW1ZX2tIOFFYbm5abkNVNFZVYm9Yc3Y4X3RaQllUSWVvb19PWnAwUnlPbkhySkNVTHZzRXFWdl8wYmJUV2g0Qm45QTNHODVuSFdyeVRxYzJHNkhFZXkxTGxYMGVzbXFwTlljdElyZS1pSmNFclduQk5HeW5wMTR1OVdTTHVyV3RIYU9QSm1kQnFCLVprS09ZcnJCaHcyT3lFYTA1Y3pFekRFZ2QxOXlnQWktZmt1OU8wcW9ZbWpKWHcyLVdIU1lRQjJtbjdFZjZ6Z29GODdabTlZbFFkQVVBMWctX2JzSXN5b3pOek5RMTZJOHZMNGQ4OXI4YXNWSUcyaW01UTZTY1pJTVlpbnV3cUZIbmRUYlZ6N2RuRmVxQ21fbVJPVWp3a0JKR3JTZFFVY1BTQmNtNFFrZURyX3hXTHNsWGhHSEVsbEVGR0xFaHdTclp2RXlGNWlyc2kwR0xVZVROVk9YM01wNHNiM2hzOUtMcjJ4ejRHMFZDM3ZDN29oTm9BTkpZdVFRNmlFcXRHd0I3TGNUdVJtU19ub25ObGU4RVNiR2dwM2kwbUdqOUZyM2lEN25xZHUxXS0tPjwvZz48L3N2Zz4=;" vertex="1" parent="1">
            <mxGeometry x="-120" y="90" width="1064" height="549" as="geometry" />
          </mxCell>
        </UserObject>
        <UserObject label="" plantUmlData="{&#xa;  &quot;data&quot;: &quot;@startuml\n!pragma layout smetana\n\ntitle Сетевой граф работ (Задание 3, буквенная схема)\n\n(*) --&gt; \&quot;А. Встретиться с руководством\&quot;\n--&gt; \&quot;Б. Составить список требований\&quot;\n\n--&gt; \&quot;В. Приобрести описания систем других банков\&quot;\n--&gt; \&quot;Ж. Обсудить пути решения проблем\&quot;\n\n\&quot;Б. Составить список требований\&quot; --&gt; \&quot;Г. Составить отличительные черты систем\&quot;\n\&quot;Г. Составить отличительные черты систем\&quot; --&gt; \&quot;Ж. Обсудить пути решения проблем\&quot;\n\n\&quot;Б. Составить список требований\&quot; --&gt; \&quot;Д. Проконсультироваться у юриста\&quot;\n\&quot;Д. Проконсультироваться у юриста\&quot; --&gt; \&quot;Ж. Обсудить пути решения проблем\&quot;\n\n\&quot;Б. Составить список требований\&quot; --&gt; \&quot;Е. Выяснить морально-этические проблемы\&quot;\n\&quot;Е. Выяснить морально-этические проблемы\&quot; --&gt; \&quot;Ж. Обсудить пути решения проблем\&quot;\n\n\&quot;Ж. Обсудить пути решения проблем\&quot; --&gt; \&quot;З. Разработать систему премирования\&quot;\n\&quot;З. Разработать систему премирования\&quot; --&gt; \&quot;И. Провести презентацию\&quot;\n\&quot;И. Провести презентацию\&quot; --&gt; (*)\n\n@enduml\n&quot;,&#xa;  &quot;format&quot;: &quot;svg&quot;&#xa;}" id="MgeT7F4WineAnSfHMYRI-2">
          <mxCell style="shape=image;noLabel=1;verticalAlign=top;aspect=fixed;imageAspect=0;image=data:image/svg+xml,PHN2ZyB4bWxucz0iaHR0cDovL3d3dy53My5vcmcvMjAwMC9zdmciIHhtbG5zOnhsaW5rPSJodHRwOi8vd3d3LnczLm9yZy8xOTk5L3hsaW5rIiBjb250ZW50U3R5bGVUeXBlPSJ0ZXh0L2NzcyIgZGF0YS1kaWFncmFtLXR5cGU9IkFDVElWSVRZIiBoZWlnaHQ9IjU0OXB4IiBwcmVzZXJ2ZUFzcGVjdFJhdGlvPSJub25lIiBzdHlsZT0id2lkdGg6MTA2NHB4O2hlaWdodDo1NDlweDtiYWNrZ3JvdW5kOiNGRkZGRkY7IiB2ZXJzaW9uPSIxLjEiIHZpZXdCb3g9IjAgMCAxMDY0IDU0OSIgd2lkdGg9IjEwNjRweCIgem9vbUFuZFBhbj0ibWFnbmlmeSI+PHRpdGxlPiYjMTA1NzsmIzEwNzc7JiMxMDkwOyYjMTA3NzsmIzEwNzQ7JiMxMDg2OyYjMTA4MTsgJiMxMDc1OyYjMTA4ODsmIzEwNzI7JiMxMDkyOyAmIzEwODg7JiMxMDcyOyYjMTA3MzsmIzEwODY7JiMxMDkwOyAoJiMxMDQ3OyYjMTA3MjsmIzEwNzY7JiMxMDcyOyYjMTA4NTsmIzEwODA7JiMxMDc3OyAzLCAmIzEwNzM7JiMxMDkxOyYjMTA4MjsmIzEwNzQ7JiMxMDc3OyYjMTA4NTsmIzEwODU7JiMxMDcyOyYjMTEwMzsgJiMxMDg5OyYjMTA5MzsmIzEwNzc7JiMxMDg0OyYjMTA3MjspPC90aXRsZT48ZGVmcy8+PGc+PHRleHQgZmlsbD0iIzAwMDAwMCIgZm9udC1mYW1pbHk9InNhbnMtc2VyaWYiIGZvbnQtc2l6ZT0iMTQiIGZvbnQtd2VpZ2h0PSJib2xkIiBsZW5ndGhBZGp1c3Q9InNwYWNpbmciIHRleHRMZW5ndGg9IjMyOSIgeD0iMzY0IiB5PSIyMy4yMzQ0Ij4mIzEwNTc7JiMxMDc3OyYjMTA5MDsmIzEwNzc7JiMxMDc0OyYjMTA4NjsmIzEwODE7ICYjMTA3NTsmIzEwODg7JiMxMDcyOyYjMTA5MjsgJiMxMDg4OyYjMTA3MjsmIzEwNzM7JiMxMDg2OyYjMTA5MDsgKCYjMTA0NzsmIzEwNzI7JiMxMDc2OyYjMTA3MjsmIzEwODU7JiMxMDgwOyYjMTA3NzsgMywgJiMxMDczOyYjMTA5MTsmIzEwODI7JiMxMDc0OyYjMTA3NzsmIzEwODU7JiMxMDg1OyYjMTA3MjsmIzExMDM7ICYjMTA4OTsmIzEwOTM7JiMxMDc3OyYjMTA4NDsmIzEwNzI7KTwvdGV4dD48ZWxsaXBzZSBjeD0iNTU0IiBjeT0iNTcuOTg0NCIgZmlsbD0iIzIyMjIyMiIgcng9IjEwIiByeT0iMTAiIHN0eWxlPSJzdHJva2U6IzIyMjIyMjtzdHJva2Utd2lkdGg6MTsiLz48cmVjdCBmaWxsPSIjRjFGMUYxIiBoZWlnaHQ9IjMyLjg0MzgiIHJ4PSIxMi41IiByeT0iMTIuNSIgc3R5bGU9InN0cm9rZTojMTgxODE4O3N0cm9rZS13aWR0aDowLjU7IiB3aWR0aD0iMTk0IiB4PSI0NTciIHk9IjEwNy45ODQ0Ii8+PHRleHQgZmlsbD0iIzAwMDAwMCIgZm9udC1mYW1pbHk9InNhbnMtc2VyaWYiIGZvbnQtc2l6ZT0iMTIiIGxlbmd0aEFkanVzdD0ic3BhY2luZyIgdGV4dExlbmd0aD0iMTc0IiB4PSI0NjciIHk9IjEyOS4zMjgxIj4mIzEwNDA7LiAmIzEwNDI7JiMxMDg5OyYjMTA5MDsmIzEwODg7JiMxMDc3OyYjMTA5MDsmIzEwODA7JiMxMDkwOyYjMTEwMDsmIzEwODk7JiMxMTAzOyAmIzEwODk7ICYjMTA4ODsmIzEwOTE7JiMxMDgyOyYjMTA4NjsmIzEwNzQ7JiMxMDg2OyYjMTA3NjsmIzEwODk7JiMxMDkwOyYjMTA3NDsmIzEwODY7JiMxMDg0OzwvdGV4dD48cmVjdCBmaWxsPSIjRjFGMUYxIiBoZWlnaHQ9IjMyLjg0MzgiIHJ4PSIxMi41IiByeT0iMTIuNSIgc3R5bGU9InN0cm9rZTojMTgxODE4O3N0cm9rZS13aWR0aDowLjU7IiB3aWR0aD0iMjAwIiB4PSI0NTQiIHk9IjE3Ni45ODQ0Ii8+PHRleHQgZmlsbD0iIzAwMDAwMCIgZm9udC1mYW1pbHk9InNhbnMtc2VyaWYiIGZvbnQtc2l6ZT0iMTIiIGxlbmd0aEFkanVzdD0ic3BhY2luZyIgdGV4dExlbmd0aD0iMTgwIiB4PSI0NjQiIHk9IjE5OC4zMjgxIj4mIzEwNDE7LiAmIzEwNTc7JiMxMDg2OyYjMTA4OTsmIzEwOTA7JiMxMDcyOyYjMTA3NDsmIzEwODA7JiMxMDkwOyYjMTEwMDsgJiMxMDg5OyYjMTA4NzsmIzEwODA7JiMxMDg5OyYjMTA4NjsmIzEwODI7ICYjMTA5MDsmIzEwODg7JiMxMDc3OyYjMTA3MzsmIzEwODY7JiMxMDc0OyYjMTA3MjsmIzEwODU7JiMxMDgwOyYjMTA4MTs8L3RleHQ+PHJlY3QgZmlsbD0iI0YxRjFGMSIgaGVpZ2h0PSIzMi44NDM4IiByeD0iMTIuNSIgcnk9IjEyLjUiIHN0eWxlPSJzdHJva2U6IzE4MTgxODtzdHJva2Utd2lkdGg6MC41OyIgd2lkdGg9IjI3OCIgeD0iNiIgeT0iMjQ1Ljk4NDQiLz48dGV4dCBmaWxsPSIjMDAwMDAwIiBmb250LWZhbWlseT0ic2Fucy1zZXJpZiIgZm9udC1zaXplPSIxMiIgbGVuZ3RoQWRqdXN0PSJzcGFjaW5nIiB0ZXh0TGVuZ3RoPSIyNTgiIHg9IjE2IiB5PSIyNjcuMzI4MSI+JiMxMDQyOy4gJiMxMDU1OyYjMTA4ODsmIzEwODA7JiMxMDg2OyYjMTA3MzsmIzEwODg7JiMxMDc3OyYjMTA4OTsmIzEwOTA7JiMxMDgwOyAmIzEwODY7JiMxMDg3OyYjMTA4MDsmIzEwODk7JiMxMDcyOyYjMTA4NTsmIzEwODA7JiMxMTAzOyAmIzEwODk7JiMxMDgwOyYjMTA4OTsmIzEwOTA7JiMxMDc3OyYjMTA4NDsgJiMxMDc2OyYjMTA4ODsmIzEwOTE7JiMxMDc1OyYjMTA4MDsmIzEwOTM7ICYjMTA3MzsmIzEwNzI7JiMxMDg1OyYjMTA4MjsmIzEwODY7JiMxMDc0OzwvdGV4dD48cmVjdCBmaWxsPSIjRjFGMUYxIiBoZWlnaHQ9IjMyLjg0MzgiIHJ4PSIxMi41IiByeT0iMTIuNSIgc3R5bGU9InN0cm9rZTojMTgxODE4O3N0cm9rZS13aWR0aDowLjU7IiB3aWR0aD0iMjEyIiB4PSI0NDgiIHk9IjMxNC45ODQ0Ii8+PHRleHQgZmlsbD0iIzAwMDAwMCIgZm9udC1mYW1pbHk9InNhbnMtc2VyaWYiIGZvbnQtc2l6ZT0iMTIiIGxlbmd0aEFkanVzdD0ic3BhY2luZyIgdGV4dExlbmd0aD0iMTkyIiB4PSI0NTgiIHk9IjMzNi4zMjgxIj4mIzEwNDY7LiAmIzEwNTQ7JiMxMDczOyYjMTA4OTsmIzEwOTE7JiMxMDc2OyYjMTA4MDsmIzEwOTA7JiMxMTAwOyAmIzEwODc7JiMxMDkxOyYjMTA5MDsmIzEwODA7ICYjMTA4ODsmIzEwNzc7JiMxMDk2OyYjMTA3NzsmIzEwODU7JiMxMDgwOyYjMTEwMzsgJiMxMDg3OyYjMTA4ODsmIzEwODY7JiMxMDczOyYjMTA4MzsmIzEwNzc7JiMxMDg0OzwvdGV4dD48cmVjdCBmaWxsPSIjRjFGMUYxIiBoZWlnaHQ9IjMyLjg0MzgiIHJ4PSIxMi41IiByeT0iMTIuNSIgc3R5bGU9InN0cm9rZTojMTgxODE4O3N0cm9rZS13aWR0aDowLjU7IiB3aWR0aD0iMjU0IiB4PSIzMDIiIHk9IjI0NS45ODQ0Ii8+PHRleHQgZmlsbD0iIzAwMDAwMCIgZm9udC1mYW1pbHk9InNhbnMtc2VyaWYiIGZvbnQtc2l6ZT0iMTIiIGxlbmd0aEFkanVzdD0ic3BhY2luZyIgdGV4dExlbmd0aD0iMjM0IiB4PSIzMTIiIHk9IjI2Ny4zMjgxIj4mIzEwNDM7LiAmIzEwNTc7JiMxMDg2OyYjMTA4OTsmIzEwOTA7JiMxMDcyOyYjMTA3NDsmIzEwODA7JiMxMDkwOyYjMTEwMDsgJiMxMDg2OyYjMTA5MDsmIzEwODM7JiMxMDgwOyYjMTA5NTsmIzEwODA7JiMxMDkwOyYjMTA3NzsmIzEwODM7JiMxMTAwOyYjMTA4NTsmIzEwOTk7JiMxMDc3OyAmIzEwOTU7JiMxMDc3OyYjMTA4ODsmIzEwOTA7JiMxMDk5OyAmIzEwODk7JiMxMDgwOyYjMTA4OTsmIzEwOTA7JiMxMDc3OyYjMTA4NDs8L3RleHQ+PHJlY3QgZmlsbD0iI0YxRjFGMSIgaGVpZ2h0PSIzMi44NDM4IiByeD0iMTIuNSIgcnk9IjEyLjUiIHN0eWxlPSJzdHJva2U6IzE4MTgxODtzdHJva2Utd2lkdGg6MC41OyIgd2lkdGg9IjIxMiIgeD0iNTc0IiB5PSIyNDUuOTg0NCIvPjx0ZXh0IGZpbGw9IiMwMDAwMDAiIGZvbnQtZmFtaWx5PSJzYW5zLXNlcmlmIiBmb250LXNpemU9IjEyIiBsZW5ndGhBZGp1c3Q9InNwYWNpbmciIHRleHRMZW5ndGg9IjE5MiIgeD0iNTg0IiB5PSIyNjcuMzI4MSI+JiMxMDQ0Oy4gJiMxMDU1OyYjMTA4ODsmIzEwODY7JiMxMDgyOyYjMTA4NjsmIzEwODU7JiMxMDg5OyYjMTA5MTsmIzEwODM7JiMxMTAwOyYjMTA5MDsmIzEwODA7JiMxMDg4OyYjMTA4NjsmIzEwNzQ7JiMxMDcyOyYjMTA5MDsmIzExMDA7JiMxMDg5OyYjMTEwMzsgJiMxMDkxOyAmIzExMDI7JiMxMDg4OyYjMTA4MDsmIzEwODk7JiMxMDkwOyYjMTA3Mjs8L3RleHQ+PHJlY3QgZmlsbD0iI0YxRjFGMSIgaGVpZ2h0PSIzMi44NDM4IiByeD0iMTIuNSIgcnk9IjEyLjUiIHN0eWxlPSJzdHJva2U6IzE4MTgxODtzdHJva2Utd2lkdGg6MC41OyIgd2lkdGg9IjI1NCIgeD0iODA0IiB5PSIyNDUuOTg0NCIvPjx0ZXh0IGZpbGw9IiMwMDAwMDAiIGZvbnQtZmFtaWx5PSJzYW5zLXNlcmlmIiBmb250LXNpemU9IjEyIiBsZW5ndGhBZGp1c3Q9InNwYWNpbmciIHRleHRMZW5ndGg9IjIzNCIgeD0iODE0IiB5PSIyNjcuMzI4MSI+JiMxMDQ1Oy4gJiMxMDQyOyYjMTA5OTsmIzExMDM7JiMxMDg5OyYjMTA4NTsmIzEwODA7JiMxMDkwOyYjMTEwMDsgJiMxMDg0OyYjMTA4NjsmIzEwODg7JiMxMDcyOyYjMTA4MzsmIzExMDA7JiMxMDg1OyYjMTA4NjstJiMxMTAxOyYjMTA5MDsmIzEwODA7JiMxMDk1OyYjMTA3NzsmIzEwODk7JiMxMDgyOyYjMTA4MDsmIzEwNzc7ICYjMTA4NzsmIzEwODg7JiMxMDg2OyYjMTA3MzsmIzEwODM7JiMxMDc3OyYjMTA4NDsmIzEwOTk7PC90ZXh0PjxyZWN0IGZpbGw9IiNGMUYxRjEiIGhlaWdodD0iMzIuODQzOCIgcng9IjEyLjUiIHJ5PSIxMi41IiBzdHlsZT0ic3Ryb2tlOiMxODE4MTg7c3Ryb2tlLXdpZHRoOjAuNTsiIHdpZHRoPSIyMzAiIHg9IjQzOSIgeT0iMzgzLjk4NDQiLz48dGV4dCBmaWxsPSIjMDAwMDAwIiBmb250LWZhbWlseT0ic2Fucy1zZXJpZiIgZm9udC1zaXplPSIxMiIgbGVuZ3RoQWRqdXN0PSJzcGFjaW5nIiB0ZXh0TGVuZ3RoPSIyMTAiIHg9IjQ0OSIgeT0iNDA1LjMyODEiPiYjMTA0NzsuICYjMTA1NjsmIzEwNzI7JiMxMDc5OyYjMTA4ODsmIzEwNzI7JiMxMDczOyYjMTA4NjsmIzEwOTA7JiMxMDcyOyYjMTA5MDsmIzExMDA7ICYjMTA4OTsmIzEwODA7JiMxMDg5OyYjMTA5MDsmIzEwNzc7JiMxMDg0OyYjMTA5MTsgJiMxMDg3OyYjMTA4ODsmIzEwNzc7JiMxMDg0OyYjMTA4MDsmIzEwODg7JiMxMDg2OyYjMTA3NDsmIzEwNzI7JiMxMDg1OyYjMTA4MDsmIzExMDM7PC90ZXh0PjxyZWN0IGZpbGw9IiNGMUYxRjEiIGhlaWdodD0iMzIuODQzOCIgcng9IjEyLjUiIHJ5PSIxMi41IiBzdHlsZT0ic3Ryb2tlOiMxODE4MTg7c3Ryb2tlLXdpZHRoOjAuNTsiIHdpZHRoPSIxNTgiIHg9IjQ3NSIgeT0iNDUyLjk4NDQiLz48dGV4dCBmaWxsPSIjMDAwMDAwIiBmb250LWZhbWlseT0ic2Fucy1zZXJpZiIgZm9udC1zaXplPSIxMiIgbGVuZ3RoQWRqdXN0PSJzcGFjaW5nIiB0ZXh0TGVuZ3RoPSIxMzgiIHg9IjQ4NSIgeT0iNDc0LjMyODEiPiYjMTA0ODsuICYjMTA1NTsmIzEwODg7JiMxMDg2OyYjMTA3NDsmIzEwNzc7JiMxMDg5OyYjMTA5MDsmIzEwODA7ICYjMTA4NzsmIzEwODg7JiMxMDc3OyYjMTA3OTsmIzEwNzc7JiMxMDg1OyYjMTA5MDsmIzEwNzI7JiMxMDk0OyYjMTA4MDsmIzExMDI7PC90ZXh0PjxlbGxpcHNlIGN4PSI1NTQiIGN5PSI1MzIuOTg0NCIgZmlsbD0ibm9uZSIgcng9IjExIiByeT0iMTEiIHN0eWxlPSJzdHJva2U6IzIyMjIyMjtzdHJva2Utd2lkdGg6MTsiLz48ZWxsaXBzZSBjeD0iNTU0IiBjeT0iNTMyLjk4NDQiIGZpbGw9IiMyMjIyMjIiIHJ4PSI2IiByeT0iNiIgc3R5bGU9InN0cm9rZTojMjIyMjIyO3N0cm9rZS13aWR0aDoxOyIvPjxnIGNsYXNzPSJsaW5rIiBkYXRhLWVudGl0eS0xPSJzdGFydCIgZGF0YS1lbnRpdHktMj0iJiMxMDQwOy4gJiMxMDQyOyYjMTA4OTsmIzEwOTA7JiMxMDg4OyYjMTA3NzsmIzEwOTA7JiMxMDgwOyYjMTA5MDsmIzExMDA7JiMxMDg5OyYjMTEwMzsgJiMxMDg5OyAmIzEwODg7JiMxMDkxOyYjMTA4MjsmIzEwODY7JiMxMDc0OyYjMTA4NjsmIzEwNzY7JiMxMDg5OyYjMTA5MDsmIzEwNzQ7JiMxMDg2OyYjMTA4NDsiIGRhdGEtdWlkPSJsbms0IiBpZD0ibGlua19zdGFydF8mIzEwNDA7LiAmIzEwNDI7JiMxMDg5OyYjMTA5MDsmIzEwODg7JiMxMDc3OyYjMTA5MDsmIzEwODA7JiMxMDkwOyYjMTEwMDsmIzEwODk7JiMxMTAzOyAmIzEwODk7ICYjMTA4ODsmIzEwOTE7JiMxMDgyOyYjMTA4NjsmIzEwNzQ7JiMxMDg2OyYjMTA3NjsmIzEwODk7JiMxMDkwOyYjMTA3NDsmIzEwODY7JiMxMDg0OyI+PHBvbHlnb24gZmlsbD0iIzE4MTgxOCIgcG9pbnRzPSI1NTQsMTA3Ljk0NzEsNTU4LDk4Ljk0NzEsNTU0LDEwMi45NDcxLDU1MCw5OC45NDcxLDU1NCwxMDcuOTQ3MSIgc3R5bGU9InN0cm9rZTojMTgxODE4O3N0cm9rZS13aWR0aDoxOyIvPjxwYXRoIGQ9Ik01NTQsNzIuMTU4MSBDNTU0LDgyLjEyOTkgNTU0LDkwLjgzMTIgNTU0LDEwMS45NDcxIiBmaWxsPSJub25lIiBzdHlsZT0ic3Ryb2tlOiMxODE4MTg7c3Ryb2tlLXdpZHRoOjE7Ii8+PC9nPjxnIGNsYXNzPSJsaW5rIiBkYXRhLWVudGl0eS0xPSImIzEwNDA7LiAmIzEwNDI7JiMxMDg5OyYjMTA5MDsmIzEwODg7JiMxMDc3OyYjMTA5MDsmIzEwODA7JiMxMDkwOyYjMTEwMDsmIzEwODk7JiMxMTAzOyAmIzEwODk7ICYjMTA4ODsmIzEwOTE7JiMxMDgyOyYjMTA4NjsmIzEwNzQ7JiMxMDg2OyYjMTA3NjsmIzEwODk7JiMxMDkwOyYjMTA3NDsmIzEwODY7JiMxMDg0OyIgZGF0YS1lbnRpdHktMj0iJiMxMDQxOy4gJiMxMDU3OyYjMTA4NjsmIzEwODk7JiMxMDkwOyYjMTA3MjsmIzEwNzQ7JiMxMDgwOyYjMTA5MDsmIzExMDA7ICYjMTA4OTsmIzEwODc7JiMxMDgwOyYjMTA4OTsmIzEwODY7JiMxMDgyOyAmIzEwOTA7JiMxMDg4OyYjMTA3NzsmIzEwNzM7JiMxMDg2OyYjMTA3NDsmIzEwNzI7JiMxMDg1OyYjMTA4MDsmIzEwODE7IiBkYXRhLXVpZD0ibG5rNiIgaWQ9ImxpbmtfJiMxMDQwOy4gJiMxMDQyOyYjMTA4OTsmIzEwOTA7JiMxMDg4OyYjMTA3NzsmIzEwOTA7JiMxMDgwOyYjMTA5MDsmIzExMDA7JiMxMDg5OyYjMTEwMzsgJiMxMDg5OyAmIzEwODg7JiMxMDkxOyYjMTA4MjsmIzEwODY7JiMxMDc0OyYjMTA4NjsmIzEwNzY7JiMxMDg5OyYjMTA5MDsmIzEwNzQ7JiMxMDg2OyYjMTA4NDtfJiMxMDQxOy4gJiMxMDU3OyYjMTA4NjsmIzEwODk7JiMxMDkwOyYjMTA3MjsmIzEwNzQ7JiMxMDgwOyYjMTA5MDsmIzExMDA7ICYjMTA4OTsmIzEwODc7JiMxMDgwOyYjMTA4OTsmIzEwODY7JiMxMDgyOyAmIzEwOTA7JiMxMDg4OyYjMTA3NzsmIzEwNzM7JiMxMDg2OyYjMTA3NDsmIzEwNzI7JiMxMDg1OyYjMTA4MDsmIzEwODE7Ij48cG9seWdvbiBmaWxsPSIjMTgxODE4IiBwb2ludHM9IjU1NCwxNzYuNTYzOCw1NTgsMTY3LjU2MzgsNTU0LDE3MS41NjM4LDU1MCwxNjcuNTYzOCw1NTQsMTc2LjU2MzgiIHN0eWxlPSJzdHJva2U6IzE4MTgxODtzdHJva2Utd2lkdGg6MTsiLz48cGF0aCBkPSJNNTU0LDE0MS4wMjM5IEM1NTQsMTUxLjY5MzMgNTU0LDE1OS44MTM2IDU1NCwxNzAuNTYzOCIgZmlsbD0ibm9uZSIgc3R5bGU9InN0cm9rZTojMTgxODE4O3N0cm9rZS13aWR0aDoxOyIvPjwvZz48ZyBjbGFzcz0ibGluayIgZGF0YS1lbnRpdHktMT0iJiMxMDQxOy4gJiMxMDU3OyYjMTA4NjsmIzEwODk7JiMxMDkwOyYjMTA3MjsmIzEwNzQ7JiMxMDgwOyYjMTA5MDsmIzExMDA7ICYjMTA4OTsmIzEwODc7JiMxMDgwOyYjMTA4OTsmIzEwODY7JiMxMDgyOyAmIzEwOTA7JiMxMDg4OyYjMTA3NzsmIzEwNzM7JiMxMDg2OyYjMTA3NDsmIzEwNzI7JiMxMDg1OyYjMTA4MDsmIzEwODE7IiBkYXRhLWVudGl0eS0yPSImIzEwNDI7LiAmIzEwNTU7JiMxMDg4OyYjMTA4MDsmIzEwODY7JiMxMDczOyYjMTA4ODsmIzEwNzc7JiMxMDg5OyYjMTA5MDsmIzEwODA7ICYjMTA4NjsmIzEwODc7JiMxMDgwOyYjMTA4OTsmIzEwNzI7JiMxMDg1OyYjMTA4MDsmIzExMDM7ICYjMTA4OTsmIzEwODA7JiMxMDg5OyYjMTA5MDsmIzEwNzc7JiMxMDg0OyAmIzEwNzY7JiMxMDg4OyYjMTA5MTsmIzEwNzU7JiMxMDgwOyYjMTA5MzsgJiMxMDczOyYjMTA3MjsmIzEwODU7JiMxMDgyOyYjMTA4NjsmIzEwNzQ7IiBkYXRhLXVpZD0ibG5rOCIgaWQ9ImxpbmtfJiMxMDQxOy4gJiMxMDU3OyYjMTA4NjsmIzEwODk7JiMxMDkwOyYjMTA3MjsmIzEwNzQ7JiMxMDgwOyYjMTA5MDsmIzExMDA7ICYjMTA4OTsmIzEwODc7JiMxMDgwOyYjMTA4OTsmIzEwODY7JiMxMDgyOyAmIzEwOTA7JiMxMDg4OyYjMTA3NzsmIzEwNzM7JiMxMDg2OyYjMTA3NDsmIzEwNzI7JiMxMDg1OyYjMTA4MDsmIzEwODE7XyYjMTA0MjsuICYjMTA1NTsmIzEwODg7JiMxMDgwOyYjMTA4NjsmIzEwNzM7JiMxMDg4OyYjMTA3NzsmIzEwODk7JiMxMDkwOyYjMTA4MDsgJiMxMDg2OyYjMTA4NzsmIzEwODA7JiMxMDg5OyYjMTA3MjsmIzEwODU7JiMxMDgwOyYjMTEwMzsgJiMxMDg5OyYjMTA4MDsmIzEwODk7JiMxMDkwOyYjMTA3NzsmIzEwODQ7ICYjMTA3NjsmIzEwODg7JiMxMDkxOyYjMTA3NTsmIzEwODA7JiMxMDkzOyAmIzEwNzM7JiMxMDcyOyYjMTA4NTsmIzEwODI7JiMxMDg2OyYjMTA3NDsiPjxwb2x5Z29uIGZpbGw9IiMxODE4MTgiIHBvaW50cz0iMjM5LjcsMjQ1Ljk3MTIsMjQ5LjIyODIsMjQ4LjQ2MzYsMjQ0LjYzNDIsMjQ1LjE2MjksMjQ3LjkzNSwyNDAuNTY4OSwyMzkuNywyNDUuOTcxMiIgc3R5bGU9InN0cm9rZTojMTgxODE4O3N0cm9rZS13aWR0aDoxOyIvPjxwYXRoIGQ9Ik00NTkuMTM5MiwyMTAuMDIzOSBDMzkzLjE4MjIsMjIwLjgyODYgMzExLjU0MjksMjM0LjIwMjMgMjQ1LjYyMTEsMjQ1LjAwMTIiIGZpbGw9Im5vbmUiIHN0eWxlPSJzdHJva2U6IzE4MTgxODtzdHJva2Utd2lkdGg6MTsiLz48L2c+PGcgY2xhc3M9ImxpbmsiIGRhdGEtZW50aXR5LTE9IiYjMTA0MjsuICYjMTA1NTsmIzEwODg7JiMxMDgwOyYjMTA4NjsmIzEwNzM7JiMxMDg4OyYjMTA3NzsmIzEwODk7JiMxMDkwOyYjMTA4MDsgJiMxMDg2OyYjMTA4NzsmIzEwODA7JiMxMDg5OyYjMTA3MjsmIzEwODU7JiMxMDgwOyYjMTEwMzsgJiMxMDg5OyYjMTA4MDsmIzEwODk7JiMxMDkwOyYjMTA3NzsmIzEwODQ7ICYjMTA3NjsmIzEwODg7JiMxMDkxOyYjMTA3NTsmIzEwODA7JiMxMDkzOyAmIzEwNzM7JiMxMDcyOyYjMTA4NTsmIzEwODI7JiMxMDg2OyYjMTA3NDsiIGRhdGEtZW50aXR5LTI9IiYjMTA0NjsuICYjMTA1NDsmIzEwNzM7JiMxMDg5OyYjMTA5MTsmIzEwNzY7JiMxMDgwOyYjMTA5MDsmIzExMDA7ICYjMTA4NzsmIzEwOTE7JiMxMDkwOyYjMTA4MDsgJiMxMDg4OyYjMTA3NzsmIzEwOTY7JiMxMDc3OyYjMTA4NTsmIzEwODA7JiMxMTAzOyAmIzEwODc7JiMxMDg4OyYjMTA4NjsmIzEwNzM7JiMxMDgzOyYjMTA3NzsmIzEwODQ7IiBkYXRhLXVpZD0ibG5rMTAiIGlkPSJsaW5rXyYjMTA0MjsuICYjMTA1NTsmIzEwODg7JiMxMDgwOyYjMTA4NjsmIzEwNzM7JiMxMDg4OyYjMTA3NzsmIzEwODk7JiMxMDkwOyYjMTA4MDsgJiMxMDg2OyYjMTA4NzsmIzEwODA7JiMxMDg5OyYjMTA3MjsmIzEwODU7JiMxMDgwOyYjMTEwMzsgJiMxMDg5OyYjMTA4MDsmIzEwODk7JiMxMDkwOyYjMTA3NzsmIzEwODQ7ICYjMTA3NjsmIzEwODg7JiMxMDkxOyYjMTA3NTsmIzEwODA7JiMxMDkzOyAmIzEwNzM7JiMxMDcyOyYjMTA4NTsmIzEwODI7JiMxMDg2OyYjMTA3NDtfJiMxMDQ2Oy4gJiMxMDU0OyYjMTA3MzsmIzEwODk7JiMxMDkxOyYjMTA3NjsmIzEwODA7JiMxMDkwOyYjMTEwMDsgJiMxMDg3OyYjMTA5MTsmIzEwOTA7JiMxMDgwOyAmIzEwODg7JiMxMDc3OyYjMTA5NjsmIzEwNzc7JiMxMDg1OyYjMTA4MDsmIzExMDM7ICYjMTA4NzsmIzEwODg7JiMxMDg2OyYjMTA3MzsmIzEwODM7JiMxMDc3OyYjMTA4NDsiPjxwb2x5Z29uIGZpbGw9IiMxODE4MTgiIHBvaW50cz0iNDU5LjMsMzE0Ljk3MTIsNDUxLjA2NSwzMDkuNTY4OSw0NTQuMzY1OCwzMTQuMTYyOSw0NDkuNzcxOCwzMTcuNDYzNiw0NTkuMywzMTQuOTcxMiIgc3R5bGU9InN0cm9rZTojMTgxODE4O3N0cm9rZS13aWR0aDoxOyIvPjxwYXRoIGQ9Ik0yMzkuODYwOCwyNzkuMDIzOSBDMzA1LjgxNzgsMjg5LjgyODYgMzg3LjQ1NzEsMzAzLjIwMjMgNDUzLjM3ODksMzE0LjAwMTIiIGZpbGw9Im5vbmUiIHN0eWxlPSJzdHJva2U6IzE4MTgxODtzdHJva2Utd2lkdGg6MTsiLz48L2c+PGcgY2xhc3M9ImxpbmsiIGRhdGEtZW50aXR5LTE9IiYjMTA0MTsuICYjMTA1NzsmIzEwODY7JiMxMDg5OyYjMTA5MDsmIzEwNzI7JiMxMDc0OyYjMTA4MDsmIzEwOTA7JiMxMTAwOyAmIzEwODk7JiMxMDg3OyYjMTA4MDsmIzEwODk7JiMxMDg2OyYjMTA4MjsgJiMxMDkwOyYjMTA4ODsmIzEwNzc7JiMxMDczOyYjMTA4NjsmIzEwNzQ7JiMxMDcyOyYjMTA4NTsmIzEwODA7JiMxMDgxOyIgZGF0YS1lbnRpdHktMj0iJiMxMDQzOy4gJiMxMDU3OyYjMTA4NjsmIzEwODk7JiMxMDkwOyYjMTA3MjsmIzEwNzQ7JiMxMDgwOyYjMTA5MDsmIzExMDA7ICYjMTA4NjsmIzEwOTA7JiMxMDgzOyYjMTA4MDsmIzEwOTU7JiMxMDgwOyYjMTA5MDsmIzEwNzc7JiMxMDgzOyYjMTEwMDsmIzEwODU7JiMxMDk5OyYjMTA3NzsgJiMxMDk1OyYjMTA3NzsmIzEwODg7JiMxMDkwOyYjMTA5OTsgJiMxMDg5OyYjMTA4MDsmIzEwODk7JiMxMDkwOyYjMTA3NzsmIzEwODQ7IiBkYXRhLXVpZD0ibG5rMTIiIGlkPSJsaW5rXyYjMTA0MTsuICYjMTA1NzsmIzEwODY7JiMxMDg5OyYjMTA5MDsmIzEwNzI7JiMxMDc0OyYjMTA4MDsmIzEwOTA7JiMxMTAwOyAmIzEwODk7JiMxMDg3OyYjMTA4MDsmIzEwODk7JiMxMDg2OyYjMTA4MjsgJiMxMDkwOyYjMTA4ODsmIzEwNzc7JiMxMDczOyYjMTA4NjsmIzEwNzQ7JiMxMDcyOyYjMTA4NTsmIzEwODA7JiMxMDgxO18mIzEwNDM7LiAmIzEwNTc7JiMxMDg2OyYjMTA4OTsmIzEwOTA7JiMxMDcyOyYjMTA3NDsmIzEwODA7JiMxMDkwOyYjMTEwMDsgJiMxMDg2OyYjMTA5MDsmIzEwODM7JiMxMDgwOyYjMTA5NTsmIzEwODA7JiMxMDkwOyYjMTA3NzsmIzEwODM7JiMxMTAwOyYjMTA4NTsmIzEwOTk7JiMxMDc3OyAmIzEwOTU7JiMxMDc3OyYjMTA4ODsmIzEwOTA7JiMxMDk5OyAmIzEwODk7JiMxMDgwOyYjMTA4OTsmIzEwOTA7JiMxMDc3OyYjMTA4NDsiPjxwb2x5Z29uIGZpbGw9IiMxODE4MTgiIHBvaW50cz0iNDU4LjI2NzUsMjQ1Ljc5Nyw0NjguMDg5NSwyNDUuMDcwOCw0NjIuNjc0NCwyNDMuNDM0OSw0NjQuMzEwMiwyMzguMDE5OCw0NTguMjY3NSwyNDUuNzk3IiBzdHlsZT0ic3Ryb2tlOiMxODE4MTg7c3Ryb2tlLXdpZHRoOjE7Ii8+PHBhdGggZD0iTTUyNS4wMDgzLDIxMC4wMjM5IEM1MDQuOTU4NSwyMjAuNzcwNiA0ODMuNjY1MSwyMzIuMTgzOSA0NjMuNTU1NywyNDIuOTYyNSIgZmlsbD0ibm9uZSIgc3R5bGU9InN0cm9rZTojMTgxODE4O3N0cm9rZS13aWR0aDoxOyIvPjwvZz48ZyBjbGFzcz0ibGluayIgZGF0YS1lbnRpdHktMT0iJiMxMDQzOy4gJiMxMDU3OyYjMTA4NjsmIzEwODk7JiMxMDkwOyYjMTA3MjsmIzEwNzQ7JiMxMDgwOyYjMTA5MDsmIzExMDA7ICYjMTA4NjsmIzEwOTA7JiMxMDgzOyYjMTA4MDsmIzEwOTU7JiMxMDgwOyYjMTA5MDsmIzEwNzc7JiMxMDgzOyYjMTEwMDsmIzEwODU7JiMxMDk5OyYjMTA3NzsgJiMxMDk1OyYjMTA3NzsmIzEwODg7JiMxMDkwOyYjMTA5OTsgJiMxMDg5OyYjMTA4MDsmIzEwODk7JiMxMDkwOyYjMTA3NzsmIzEwODQ7IiBkYXRhLWVudGl0eS0yPSImIzEwNDY7LiAmIzEwNTQ7JiMxMDczOyYjMTA4OTsmIzEwOTE7JiMxMDc2OyYjMTA4MDsmIzEwOTA7JiMxMTAwOyAmIzEwODc7JiMxMDkxOyYjMTA5MDsmIzEwODA7ICYjMTA4ODsmIzEwNzc7JiMxMDk2OyYjMTA3NzsmIzEwODU7JiMxMDgwOyYjMTEwMzsgJiMxMDg3OyYjMTA4ODsmIzEwODY7JiMxMDczOyYjMTA4MzsmIzEwNzc7JiMxMDg0OyIgZGF0YS11aWQ9ImxuazEzIiBpZD0ibGlua18mIzEwNDM7LiAmIzEwNTc7JiMxMDg2OyYjMTA4OTsmIzEwOTA7JiMxMDcyOyYjMTA3NDsmIzEwODA7JiMxMDkwOyYjMTEwMDsgJiMxMDg2OyYjMTA5MDsmIzEwODM7JiMxMDgwOyYjMTA5NTsmIzEwODA7JiMxMDkwOyYjMTA3NzsmIzEwODM7JiMxMTAwOyYjMTA4NTsmIzEwOTk7JiMxMDc3OyAmIzEwOTU7JiMxMDc3OyYjMTA4ODsmIzEwOTA7JiMxMDk5OyAmIzEwODk7JiMxMDgwOyYjMTA4OTsmIzEwOTA7JiMxMDc3OyYjMTA4NDtfJiMxMDQ2Oy4gJiMxMDU0OyYjMTA3MzsmIzEwODk7JiMxMDkxOyYjMTA3NjsmIzEwODA7JiMxMDkwOyYjMTEwMDsgJiMxMDg3OyYjMTA5MTsmIzEwOTA7JiMxMDgwOyAmIzEwODg7JiMxMDc3OyYjMTA5NjsmIzEwNzc7JiMxMDg1OyYjMTA4MDsmIzExMDM7ICYjMTA4NzsmIzEwODg7JiMxMDg2OyYjMTA3MzsmIzEwODM7JiMxMDc3OyYjMTA4NDsiPjxwb2x5Z29uIGZpbGw9IiMxODE4MTgiIHBvaW50cz0iNTI0LjczMjUsMzE0Ljc5Nyw1MTguNjg5OCwzMDcuMDE5OCw1MjAuMzI1NiwzMTIuNDM0OSw1MTQuOTEwNSwzMTQuMDcwOCw1MjQuNzMyNSwzMTQuNzk3IiBzdHlsZT0ic3Ryb2tlOiMxODE4MTg7c3Ryb2tlLXdpZHRoOjE7Ii8+PHBhdGggZD0iTTQ1Ny45OTE3LDI3OS4wMjM5IEM0NzguMDQxNSwyODkuNzcwNiA0OTkuMzM0OSwzMDEuMTgzOSA1MTkuNDQ0MywzMTEuOTYyNSIgZmlsbD0ibm9uZSIgc3R5bGU9InN0cm9rZTojMTgxODE4O3N0cm9rZS13aWR0aDoxOyIvPjwvZz48ZyBjbGFzcz0ibGluayIgZGF0YS1lbnRpdHktMT0iJiMxMDQxOy4gJiMxMDU3OyYjMTA4NjsmIzEwODk7JiMxMDkwOyYjMTA3MjsmIzEwNzQ7JiMxMDgwOyYjMTA5MDsmIzExMDA7ICYjMTA4OTsmIzEwODc7JiMxMDgwOyYjMTA4OTsmIzEwODY7JiMxMDgyOyAmIzEwOTA7JiMxMDg4OyYjMTA3NzsmIzEwNzM7JiMxMDg2OyYjMTA3NDsmIzEwNzI7JiMxMDg1OyYjMTA4MDsmIzEwODE7IiBkYXRhLWVudGl0eS0yPSImIzEwNDQ7LiAmIzEwNTU7JiMxMDg4OyYjMTA4NjsmIzEwODI7JiMxMDg2OyYjMTA4NTsmIzEwODk7JiMxMDkxOyYjMTA4MzsmIzExMDA7JiMxMDkwOyYjMTA4MDsmIzEwODg7JiMxMDg2OyYjMTA3NDsmIzEwNzI7JiMxMDkwOyYjMTEwMDsmIzEwODk7JiMxMTAzOyAmIzEwOTE7ICYjMTEwMjsmIzEwODg7JiMxMDgwOyYjMTA4OTsmIzEwOTA7JiMxMDcyOyIgZGF0YS11aWQ9ImxuazE1IiBpZD0ibGlua18mIzEwNDE7LiAmIzEwNTc7JiMxMDg2OyYjMTA4OTsmIzEwOTA7JiMxMDcyOyYjMTA3NDsmIzEwODA7JiMxMDkwOyYjMTEwMDsgJiMxMDg5OyYjMTA4NzsmIzEwODA7JiMxMDg5OyYjMTA4NjsmIzEwODI7ICYjMTA5MDsmIzEwODg7JiMxMDc3OyYjMTA3MzsmIzEwODY7JiMxMDc0OyYjMTA3MjsmIzEwODU7JiMxMDgwOyYjMTA4MTtfJiMxMDQ0Oy4gJiMxMDU1OyYjMTA4ODsmIzEwODY7JiMxMDgyOyYjMTA4NjsmIzEwODU7JiMxMDg5OyYjMTA5MTsmIzEwODM7JiMxMTAwOyYjMTA5MDsmIzEwODA7JiMxMDg4OyYjMTA4NjsmIzEwNzQ7JiMxMDcyOyYjMTA5MDsmIzExMDA7JiMxMDg5OyYjMTEwMzsgJiMxMDkxOyAmIzExMDI7JiMxMDg4OyYjMTA4MDsmIzEwODk7JiMxMDkwOyYjMTA3MjsiPjxwb2x5Z29uIGZpbGw9IiMxODE4MTgiIHBvaW50cz0iNjUwLjQ5ODQsMjQ1Ljc5Nyw2NDQuNDMsMjM4LjAzOTgsNjQ2LjA4MzcsMjQzLjQ0OTUsNjQwLjY3NCwyNDUuMTAzMyw2NTAuNDk4NCwyNDUuNzk3IiBzdHlsZT0ic3Ryb2tlOiMxODE4MTg7c3Ryb2tlLXdpZHRoOjE7Ii8+PHBhdGggZD0iTTU4My4yMjM2LDIxMC4wMjM5IEM2MDMuNDMzOCwyMjAuNzcwNiA2MjQuOTMwNiwyMzIuMjAxNCA2NDUuMjAwOCwyNDIuOTgiIGZpbGw9Im5vbmUiIHN0eWxlPSJzdHJva2U6IzE4MTgxODtzdHJva2Utd2lkdGg6MTsiLz48L2c+PGcgY2xhc3M9ImxpbmsiIGRhdGEtZW50aXR5LTE9IiYjMTA0NDsuICYjMTA1NTsmIzEwODg7JiMxMDg2OyYjMTA4MjsmIzEwODY7JiMxMDg1OyYjMTA4OTsmIzEwOTE7JiMxMDgzOyYjMTEwMDsmIzEwOTA7JiMxMDgwOyYjMTA4ODsmIzEwODY7JiMxMDc0OyYjMTA3MjsmIzEwOTA7JiMxMTAwOyYjMTA4OTsmIzExMDM7ICYjMTA5MTsgJiMxMTAyOyYjMTA4ODsmIzEwODA7JiMxMDg5OyYjMTA5MDsmIzEwNzI7IiBkYXRhLWVudGl0eS0yPSImIzEwNDY7LiAmIzEwNTQ7JiMxMDczOyYjMTA4OTsmIzEwOTE7JiMxMDc2OyYjMTA4MDsmIzEwOTA7JiMxMTAwOyAmIzEwODc7JiMxMDkxOyYjMTA5MDsmIzEwODA7ICYjMTA4ODsmIzEwNzc7JiMxMDk2OyYjMTA3NzsmIzEwODU7JiMxMDgwOyYjMTEwMzsgJiMxMDg3OyYjMTA4ODsmIzEwODY7JiMxMDczOyYjMTA4MzsmIzEwNzc7JiMxMDg0OyIgZGF0YS11aWQ9ImxuazE2IiBpZD0ibGlua18mIzEwNDQ7LiAmIzEwNTU7JiMxMDg4OyYjMTA4NjsmIzEwODI7JiMxMDg2OyYjMTA4NTsmIzEwODk7JiMxMDkxOyYjMTA4MzsmIzExMDA7JiMxMDkwOyYjMTA4MDsmIzEwODg7JiMxMDg2OyYjMTA3NDsmIzEwNzI7JiMxMDkwOyYjMTEwMDsmIzEwODk7JiMxMTAzOyAmIzEwOTE7ICYjMTEwMjsmIzEwODg7JiMxMDgwOyYjMTA4OTsmIzEwOTA7JiMxMDcyO18mIzEwNDY7LiAmIzEwNTQ7JiMxMDczOyYjMTA4OTsmIzEwOTE7JiMxMDc2OyYjMTA4MDsmIzEwOTA7JiMxMTAwOyAmIzEwODc7JiMxMDkxOyYjMTA5MDsmIzEwODA7ICYjMTA4ODsmIzEwNzc7JiMxMDk2OyYjMTA3NzsmIzEwODU7JiMxMDgwOyYjMTEwMzsgJiMxMDg3OyYjMTA4ODsmIzEwODY7JiMxMDczOyYjMTA4MzsmIzEwNzc7JiMxMDg0OyI+PHBvbHlnb24gZmlsbD0iIzE4MTgxOCIgcG9pbnRzPSI1ODMuNTAxNiwzMTQuNzk3LDU5My4zMjYsMzE0LjEwMzMsNTg3LjkxNjMsMzEyLjQ0OTUsNTg5LjU3LDMwNy4wMzk4LDU4My41MDE2LDMxNC43OTciIHN0eWxlPSJzdHJva2U6IzE4MTgxODtzdHJva2Utd2lkdGg6MTsiLz48cGF0aCBkPSJNNjUwLjc3NjQsMjc5LjAyMzkgQzYzMC41NjYyLDI4OS43NzA2IDYwOS4wNjk0LDMwMS4yMDE0IDU4OC43OTkyLDMxMS45OCIgZmlsbD0ibm9uZSIgc3R5bGU9InN0cm9rZTojMTgxODE4O3N0cm9rZS13aWR0aDoxOyIvPjwvZz48ZyBjbGFzcz0ibGluayIgZGF0YS1lbnRpdHktMT0iJiMxMDQxOy4gJiMxMDU3OyYjMTA4NjsmIzEwODk7JiMxMDkwOyYjMTA3MjsmIzEwNzQ7JiMxMDgwOyYjMTA5MDsmIzExMDA7ICYjMTA4OTsmIzEwODc7JiMxMDgwOyYjMTA4OTsmIzEwODY7JiMxMDgyOyAmIzEwOTA7JiMxMDg4OyYjMTA3NzsmIzEwNzM7JiMxMDg2OyYjMTA3NDsmIzEwNzI7JiMxMDg1OyYjMTA4MDsmIzEwODE7IiBkYXRhLWVudGl0eS0yPSImIzEwNDU7LiAmIzEwNDI7JiMxMDk5OyYjMTEwMzsmIzEwODk7JiMxMDg1OyYjMTA4MDsmIzEwOTA7JiMxMTAwOyAmIzEwODQ7JiMxMDg2OyYjMTA4ODsmIzEwNzI7JiMxMDgzOyYjMTEwMDsmIzEwODU7JiMxMDg2Oy0mIzExMDE7JiMxMDkwOyYjMTA4MDsmIzEwOTU7JiMxMDc3OyYjMTA4OTsmIzEwODI7JiMxMDgwOyYjMTA3NzsgJiMxMDg3OyYjMTA4ODsmIzEwODY7JiMxMDczOyYjMTA4MzsmIzEwNzc7JiMxMDg0OyYjMTA5OTsiIGRhdGEtdWlkPSJsbmsxOCIgaWQ9ImxpbmtfJiMxMDQxOy4gJiMxMDU3OyYjMTA4NjsmIzEwODk7JiMxMDkwOyYjMTA3MjsmIzEwNzQ7JiMxMDgwOyYjMTA5MDsmIzExMDA7ICYjMTA4OTsmIzEwODc7JiMxMDgwOyYjMTA4OTsmIzEwODY7JiMxMDgyOyAmIzEwOTA7JiMxMDg4OyYjMTA3NzsmIzEwNzM7JiMxMDg2OyYjMTA3NDsmIzEwNzI7JiMxMDg1OyYjMTA4MDsmIzEwODE7XyYjMTA0NTsuICYjMTA0MjsmIzEwOTk7JiMxMTAzOyYjMTA4OTsmIzEwODU7JiMxMDgwOyYjMTA5MDsmIzExMDA7ICYjMTA4NDsmIzEwODY7JiMxMDg4OyYjMTA3MjsmIzEwODM7JiMxMTAwOyYjMTA4NTsmIzEwODY7LSYjMTEwMTsmIzEwOTA7JiMxMDgwOyYjMTA5NTsmIzEwNzc7JiMxMDg5OyYjMTA4MjsmIzEwODA7JiMxMDc3OyAmIzEwODc7JiMxMDg4OyYjMTA4NjsmIzEwNzM7JiMxMDgzOyYjMTA3NzsmIzEwODQ7JiMxMDk5OyI+PHBvbHlnb24gZmlsbD0iIzE4MTgxOCIgcG9pbnRzPSI4NDMuNzA5MywyNDUuOTcxMiw4MzUuNTQ4MSwyNDAuNDU4MSw4MzguNzg2NCwyNDUuMDk2Myw4MzQuMTQ4MiwyNDguMzM0Nyw4NDMuNzA5MywyNDUuOTcxMiIgc3R5bGU9InN0cm9rZTojMTgxODE4O3N0cm9rZS13aWR0aDoxOyIvPjxwYXRoIGQ9Ik02NDEuNDM5LDIxMC4wMjM5IEM3MDIuMjM1NSwyMjAuODI4NiA3NzcuMDM3OCwyMzQuMTIyNCA4MzcuODAxOSwyNDQuOTIxMyIgZmlsbD0ibm9uZSIgc3R5bGU9InN0cm9rZTojMTgxODE4O3N0cm9rZS13aWR0aDoxOyIvPjwvZz48ZyBjbGFzcz0ibGluayIgZGF0YS1lbnRpdHktMT0iJiMxMDQ1Oy4gJiMxMDQyOyYjMTA5OTsmIzExMDM7JiMxMDg5OyYjMTA4NTsmIzEwODA7JiMxMDkwOyYjMTEwMDsgJiMxMDg0OyYjMTA4NjsmIzEwODg7JiMxMDcyOyYjMTA4MzsmIzExMDA7JiMxMDg1OyYjMTA4NjstJiMxMTAxOyYjMTA5MDsmIzEwODA7JiMxMDk1OyYjMTA3NzsmIzEwODk7JiMxMDgyOyYjMTA4MDsmIzEwNzc7ICYjMTA4NzsmIzEwODg7JiMxMDg2OyYjMTA3MzsmIzEwODM7JiMxMDc3OyYjMTA4NDsmIzEwOTk7IiBkYXRhLWVudGl0eS0yPSImIzEwNDY7LiAmIzEwNTQ7JiMxMDczOyYjMTA4OTsmIzEwOTE7JiMxMDc2OyYjMTA4MDsmIzEwOTA7JiMxMTAwOyAmIzEwODc7JiMxMDkxOyYjMTA5MDsmIzEwODA7ICYjMTA4ODsmIzEwNzc7JiMxMDk2OyYjMTA3NzsmIzEwODU7JiMxMDgwOyYjMTEwMzsgJiMxMDg3OyYjMTA4ODsmIzEwODY7JiMxMDczOyYjMTA4MzsmIzEwNzc7JiMxMDg0OyIgZGF0YS11aWQ9ImxuazE5IiBpZD0ibGlua18mIzEwNDU7LiAmIzEwNDI7JiMxMDk5OyYjMTEwMzsmIzEwODk7JiMxMDg1OyYjMTA4MDsmIzEwOTA7JiMxMTAwOyAmIzEwODQ7JiMxMDg2OyYjMTA4ODsmIzEwNzI7JiMxMDgzOyYjMTEwMDsmIzEwODU7JiMxMDg2Oy0mIzExMDE7JiMxMDkwOyYjMTA4MDsmIzEwOTU7JiMxMDc3OyYjMTA4OTsmIzEwODI7JiMxMDgwOyYjMTA3NzsgJiMxMDg3OyYjMTA4ODsmIzEwODY7JiMxMDczOyYjMTA4MzsmIzEwNzc7JiMxMDg0OyYjMTA5OTtfJiMxMDQ2Oy4gJiMxMDU0OyYjMTA3MzsmIzEwODk7JiMxMDkxOyYjMTA3NjsmIzEwODA7JiMxMDkwOyYjMTEwMDsgJiMxMDg3OyYjMTA5MTsmIzEwOTA7JiMxMDgwOyAmIzEwODg7JiMxMDc3OyYjMTA5NjsmIzEwNzc7JiMxMDg1OyYjMTA4MDsmIzExMDM7ICYjMTA4NzsmIzEwODg7JiMxMDg2OyYjMTA3MzsmIzEwODM7JiMxMDc3OyYjMTA4NDsiPjxwb2x5Z29uIGZpbGw9IiMxODE4MTgiIHBvaW50cz0iNjQxLjI5MDcsMzE0Ljk3MTIsNjUwLjg1MTgsMzE3LjMzNDcsNjQ2LjIxMzYsMzE0LjA5NjMsNjQ5LjQ1MTksMzA5LjQ1ODEsNjQxLjI5MDcsMzE0Ljk3MTIiIHN0eWxlPSJzdHJva2U6IzE4MTgxODtzdHJva2Utd2lkdGg6MTsiLz48cGF0aCBkPSJNODQzLjU2MSwyNzkuMDIzOSBDNzgyLjc2NDUsMjg5LjgyODYgNzA3Ljk2MjIsMzAzLjEyMjQgNjQ3LjE5ODEsMzEzLjkyMTMiIGZpbGw9Im5vbmUiIHN0eWxlPSJzdHJva2U6IzE4MTgxODtzdHJva2Utd2lkdGg6MTsiLz48L2c+PGcgY2xhc3M9ImxpbmsiIGRhdGEtZW50aXR5LTE9IiYjMTA0NjsuICYjMTA1NDsmIzEwNzM7JiMxMDg5OyYjMTA5MTsmIzEwNzY7JiMxMDgwOyYjMTA5MDsmIzExMDA7ICYjMTA4NzsmIzEwOTE7JiMxMDkwOyYjMTA4MDsgJiMxMDg4OyYjMTA3NzsmIzEwOTY7JiMxMDc3OyYjMTA4NTsmIzEwODA7JiMxMTAzOyAmIzEwODc7JiMxMDg4OyYjMTA4NjsmIzEwNzM7JiMxMDgzOyYjMTA3NzsmIzEwODQ7IiBkYXRhLWVudGl0eS0yPSImIzEwNDc7LiAmIzEwNTY7JiMxMDcyOyYjMTA3OTsmIzEwODg7JiMxMDcyOyYjMTA3MzsmIzEwODY7JiMxMDkwOyYjMTA3MjsmIzEwOTA7JiMxMTAwOyAmIzEwODk7JiMxMDgwOyYjMTA4OTsmIzEwOTA7JiMxMDc3OyYjMTA4NDsmIzEwOTE7ICYjMTA4NzsmIzEwODg7JiMxMDc3OyYjMTA4NDsmIzEwODA7JiMxMDg4OyYjMTA4NjsmIzEwNzQ7JiMxMDcyOyYjMTA4NTsmIzEwODA7JiMxMTAzOyIgZGF0YS11aWQ9ImxuazIxIiBpZD0ibGlua18mIzEwNDY7LiAmIzEwNTQ7JiMxMDczOyYjMTA4OTsmIzEwOTE7JiMxMDc2OyYjMTA4MDsmIzEwOTA7JiMxMTAwOyAmIzEwODc7JiMxMDkxOyYjMTA5MDsmIzEwODA7ICYjMTA4ODsmIzEwNzc7JiMxMDk2OyYjMTA3NzsmIzEwODU7JiMxMDgwOyYjMTEwMzsgJiMxMDg3OyYjMTA4ODsmIzEwODY7JiMxMDczOyYjMTA4MzsmIzEwNzc7JiMxMDg0O18mIzEwNDc7LiAmIzEwNTY7JiMxMDcyOyYjMTA3OTsmIzEwODg7JiMxMDcyOyYjMTA3MzsmIzEwODY7JiMxMDkwOyYjMTA3MjsmIzEwOTA7JiMxMTAwOyAmIzEwODk7JiMxMDgwOyYjMTA4OTsmIzEwOTA7JiMxMDc3OyYjMTA4NDsmIzEwOTE7ICYjMTA4NzsmIzEwODg7JiMxMDc3OyYjMTA4NDsmIzEwODA7JiMxMDg4OyYjMTA4NjsmIzEwNzQ7JiMxMDcyOyYjMTA4NTsmIzEwODA7JiMxMTAzOyI+PHBvbHlnb24gZmlsbD0iIzE4MTgxOCIgcG9pbnRzPSI1NTQsMzgzLjU2MzgsNTU4LDM3NC41NjM4LDU1NCwzNzguNTYzOCw1NTAsMzc0LjU2MzgsNTU0LDM4My41NjM4IiBzdHlsZT0ic3Ryb2tlOiMxODE4MTg7c3Ryb2tlLXdpZHRoOjE7Ii8+PHBhdGggZD0iTTU1NCwzNDguMDIzOSBDNTU0LDM1OC42OTMzIDU1NCwzNjYuODEzNiA1NTQsMzc3LjU2MzgiIGZpbGw9Im5vbmUiIHN0eWxlPSJzdHJva2U6IzE4MTgxODtzdHJva2Utd2lkdGg6MTsiLz48L2c+PGcgY2xhc3M9ImxpbmsiIGRhdGEtZW50aXR5LTE9IiYjMTA0NzsuICYjMTA1NjsmIzEwNzI7JiMxMDc5OyYjMTA4ODsmIzEwNzI7JiMxMDczOyYjMTA4NjsmIzEwOTA7JiMxMDcyOyYjMTA5MDsmIzExMDA7ICYjMTA4OTsmIzEwODA7JiMxMDg5OyYjMTA5MDsmIzEwNzc7JiMxMDg0OyYjMTA5MTsgJiMxMDg3OyYjMTA4ODsmIzEwNzc7JiMxMDg0OyYjMTA4MDsmIzEwODg7JiMxMDg2OyYjMTA3NDsmIzEwNzI7JiMxMDg1OyYjMTA4MDsmIzExMDM7IiBkYXRhLWVudGl0eS0yPSImIzEwNDg7LiAmIzEwNTU7JiMxMDg4OyYjMTA4NjsmIzEwNzQ7JiMxMDc3OyYjMTA4OTsmIzEwOTA7JiMxMDgwOyAmIzEwODc7JiMxMDg4OyYjMTA3NzsmIzEwNzk7JiMxMDc3OyYjMTA4NTsmIzEwOTA7JiMxMDcyOyYjMTA5NDsmIzEwODA7JiMxMTAyOyIgZGF0YS11aWQ9ImxuazIzIiBpZD0ibGlua18mIzEwNDc7LiAmIzEwNTY7JiMxMDcyOyYjMTA3OTsmIzEwODg7JiMxMDcyOyYjMTA3MzsmIzEwODY7JiMxMDkwOyYjMTA3MjsmIzEwOTA7JiMxMTAwOyAmIzEwODk7JiMxMDgwOyYjMTA4OTsmIzEwOTA7JiMxMDc3OyYjMTA4NDsmIzEwOTE7ICYjMTA4NzsmIzEwODg7JiMxMDc3OyYjMTA4NDsmIzEwODA7JiMxMDg4OyYjMTA4NjsmIzEwNzQ7JiMxMDcyOyYjMTA4NTsmIzEwODA7JiMxMTAzO18mIzEwNDg7LiAmIzEwNTU7JiMxMDg4OyYjMTA4NjsmIzEwNzQ7JiMxMDc3OyYjMTA4OTsmIzEwOTA7JiMxMDgwOyAmIzEwODc7JiMxMDg4OyYjMTA3NzsmIzEwNzk7JiMxMDc3OyYjMTA4NTsmIzEwOTA7JiMxMDcyOyYjMTA5NDsmIzEwODA7JiMxMTAyOyI+PHBvbHlnb24gZmlsbD0iIzE4MTgxOCIgcG9pbnRzPSI1NTQsNDUyLjU2MzgsNTU4LDQ0My41NjM4LDU1NCw0NDcuNTYzOCw1NTAsNDQzLjU2MzgsNTU0LDQ1Mi41NjM4IiBzdHlsZT0ic3Ryb2tlOiMxODE4MTg7c3Ryb2tlLXdpZHRoOjE7Ii8+PHBhdGggZD0iTTU1NCw0MTcuMDIzOSBDNTU0LDQyNy42OTMzIDU1NCw0MzUuODEzNiA1NTQsNDQ2LjU2MzgiIGZpbGw9Im5vbmUiIHN0eWxlPSJzdHJva2U6IzE4MTgxODtzdHJva2Utd2lkdGg6MTsiLz48L2c+PGcgY2xhc3M9ImxpbmsiIGRhdGEtZW50aXR5LTE9IiYjMTA0ODsuICYjMTA1NTsmIzEwODg7JiMxMDg2OyYjMTA3NDsmIzEwNzc7JiMxMDg5OyYjMTA5MDsmIzEwODA7ICYjMTA4NzsmIzEwODg7JiMxMDc3OyYjMTA3OTsmIzEwNzc7JiMxMDg1OyYjMTA5MDsmIzEwNzI7JiMxMDk0OyYjMTA4MDsmIzExMDI7IiBkYXRhLWVudGl0eS0yPSJlbmQiIGRhdGEtdWlkPSJsbmsyNSIgaWQ9ImxpbmtfJiMxMDQ4Oy4gJiMxMDU1OyYjMTA4ODsmIzEwODY7JiMxMDc0OyYjMTA3NzsmIzEwODk7JiMxMDkwOyYjMTA4MDsgJiMxMDg3OyYjMTA4ODsmIzEwNzc7JiMxMDc5OyYjMTA3NzsmIzEwODU7JiMxMDkwOyYjMTA3MjsmIzEwOTQ7JiMxMDgwOyYjMTEwMjtfZW5kIj48cG9seWdvbiBmaWxsPSIjMTgxODE4IiBwb2ludHM9IjU1NCw1MjEuOTQ1NSw1NTgsNTEyLjk0NTUsNTU0LDUxNi45NDU1LDU1MCw1MTIuOTQ1NSw1NTQsNTIxLjk0NTUiIHN0eWxlPSJzdHJva2U6IzE4MTgxODtzdHJva2Utd2lkdGg6MTsiLz48cGF0aCBkPSJNNTU0LDQ4Ni4yNTU4IEM1NTQsNDk3LjM5MzggNTU0LDUwNi4wNDE0IDU1NCw1MTUuOTQ1NSIgZmlsbD0ibm9uZSIgc3R5bGU9InN0cm9rZTojMTgxODE4O3N0cm9rZS13aWR0aDoxOyIvPjwvZz48IS0tU1JDPVtwTEhCSlc5MTREdEZBS2ZNTzhJRFUteW8yczlDRzh0WW1YcXBZOWVDV2s4N0x0dmttNl8yeTlkWDJqS3R5Yk5yMDI1bmV4MVdDUGRrZ2RnbE5iTHJ6enh2WE5qU1RnZGFOZnpUTFVZb05Bb3Vmd3haTDR1Z2ZJQm5EdVY2dnYzeGRGMk9VNjJndDNLdDkzX2tTTTl5b2Q4N3dvNi1jMkNFd1YyMGs2VGdGMDRjWDJxNmU0TjZDdExpUHpwREVLdnNGcVZ2XzE1Yi1CNTB0OFJGMXc0YVloMWdPMnkwOTU2UUg5Q0Y5S2ZOaXVuWm1LeTVxUFVlZW1rTldXN2FFUE9VOFlUYVlLS2ZfNVJYRUVFYS0zUm1kXzE3eUZQS1czMTVYQXJiSzgxZ2FRdHNPS1BHOGhlNkNETEhnR1FmbzhNaUR6MS1XRDEzcjMwTG5OREpLc3ZEU3ctRDRNUk9ndkFUZnk4RFBWLWxBa3RleXd6bWNISG9IRVBFM0MxRUpPRFo0czFVQzhNZW8zVjFNZnFQUHVqU2owa1RVS2Q3ZFVZdU9iSzF3TmhnZ1hRbUVkcXJDYXF2NlpRUEQ2Q0otNHhLX3dmdEJKMGpuQ1FCeDNGbW9MdE02TkFJRG16UWFDcEhHdzVvZVRVTGM0MlFpSk1reE5IYzB0V2dlMEU2QnNXVmhMdXNFeS1yV3VvdkFibVVpa05LQlF6cVBORUlMQ3R4eWdwckx3LUluT29hNEVNejFROGZRVnlHaFZudVZkeTBdLS0+PC9nPjwvc3ZnPg==;" vertex="1" parent="1">
            <mxGeometry x="-160" y="840" width="1064" height="549" as="geometry" />
          </mxCell>
        </UserObject>
        <UserObject label="" plantUmlData="{&#xa;  &quot;data&quot;: &quot;@startuml\n!pragma layout smetana\n\ntitle Сетевой граф работ (только буквы)\n\n(*) --&gt; A\nA --&gt; B\n\nB --&gt; V\nV --&gt; Zh\n\nB --&gt; G\nG --&gt; Zh\n\nB --&gt; D\nD --&gt; Zh\n\nB --&gt; E\nE --&gt; Zh\n\nZh --&gt; Z\nZ --&gt; I\nI --&gt; (*)\n\n@enduml\n&quot;,&#xa;  &quot;format&quot;: &quot;svg&quot;&#xa;}" id="MgeT7F4WineAnSfHMYRI-4">
          <mxCell style="shape=image;noLabel=1;verticalAlign=top;aspect=fixed;imageAspect=0;image=data:image/svg+xml,PHN2ZyB4bWxucz0iaHR0cDovL3d3dy53My5vcmcvMjAwMC9zdmciIHhtbG5zOnhsaW5rPSJodHRwOi8vd3d3LnczLm9yZy8xOTk5L3hsaW5rIiBjb250ZW50U3R5bGVUeXBlPSJ0ZXh0L2NzcyIgZGF0YS1kaWFncmFtLXR5cGU9IkFDVElWSVRZIiBoZWlnaHQ9IjU0OXB4IiBwcmVzZXJ2ZUFzcGVjdFJhdGlvPSJub25lIiBzdHlsZT0id2lkdGg6MjU5cHg7aGVpZ2h0OjU0OXB4O2JhY2tncm91bmQ6I0ZGRkZGRjsiIHZlcnNpb249IjEuMSIgdmlld0JveD0iMCAwIDI1OSA1NDkiIHdpZHRoPSIyNTlweCIgem9vbUFuZFBhbj0ibWFnbmlmeSI+PHRpdGxlPiYjMTA1NzsmIzEwNzc7JiMxMDkwOyYjMTA3NzsmIzEwNzQ7JiMxMDg2OyYjMTA4MTsgJiMxMDc1OyYjMTA4ODsmIzEwNzI7JiMxMDkyOyAmIzEwODg7JiMxMDcyOyYjMTA3MzsmIzEwODY7JiMxMDkwOyAoJiMxMDkwOyYjMTA4NjsmIzEwODM7JiMxMTAwOyYjMTA4MjsmIzEwODY7ICYjMTA3MzsmIzEwOTE7JiMxMDgyOyYjMTA3NDsmIzEwOTk7KTwvdGl0bGU+PGRlZnMvPjxnPjx0ZXh0IGZpbGw9IiMwMDAwMDAiIGZvbnQtZmFtaWx5PSJzYW5zLXNlcmlmIiBmb250LXNpemU9IjE0IiBmb250LXdlaWdodD0iYm9sZCIgbGVuZ3RoQWRqdXN0PSJzcGFjaW5nIiB0ZXh0TGVuZ3RoPSIyMzEiIHg9IjEwIiB5PSIyMy4yMzQ0Ij4mIzEwNTc7JiMxMDc3OyYjMTA5MDsmIzEwNzc7JiMxMDc0OyYjMTA4NjsmIzEwODE7ICYjMTA3NTsmIzEwODg7JiMxMDcyOyYjMTA5MjsgJiMxMDg4OyYjMTA3MjsmIzEwNzM7JiMxMDg2OyYjMTA5MDsgKCYjMTA5MDsmIzEwODY7JiMxMDgzOyYjMTEwMDsmIzEwODI7JiMxMDg2OyAmIzEwNzM7JiMxMDkxOyYjMTA4MjsmIzEwNzQ7JiMxMDk5Oyk8L3RleHQ+PGVsbGlwc2UgY3g9IjEyOSIgY3k9IjU3Ljk4NDQiIGZpbGw9IiMyMjIyMjIiIHJ4PSIxMCIgcnk9IjEwIiBzdHlsZT0ic3Ryb2tlOiMyMjIyMjI7c3Ryb2tlLXdpZHRoOjE7Ii8+PHJlY3QgZmlsbD0iI0YxRjFGMSIgaGVpZ2h0PSIzMi44NDM4IiByeD0iMTIuNSIgcnk9IjEyLjUiIHN0eWxlPSJzdHJva2U6IzE4MTgxODtzdHJva2Utd2lkdGg6MC41OyIgd2lkdGg9IjI2IiB4PSIxMTYiIHk9IjEwNy45ODQ0Ii8+PHRleHQgZmlsbD0iIzAwMDAwMCIgZm9udC1mYW1pbHk9InNhbnMtc2VyaWYiIGZvbnQtc2l6ZT0iMTIiIGxlbmd0aEFkanVzdD0ic3BhY2luZyIgdGV4dExlbmd0aD0iNiIgeD0iMTI2IiB5PSIxMjkuMzI4MSI+QTwvdGV4dD48cmVjdCBmaWxsPSIjRjFGMUYxIiBoZWlnaHQ9IjMyLjg0MzgiIHJ4PSIxMi41IiByeT0iMTIuNSIgc3R5bGU9InN0cm9rZTojMTgxODE4O3N0cm9rZS13aWR0aDowLjU7IiB3aWR0aD0iMjYiIHg9IjExNiIgeT0iMTc2Ljk4NDQiLz48dGV4dCBmaWxsPSIjMDAwMDAwIiBmb250LWZhbWlseT0ic2Fucy1zZXJpZiIgZm9udC1zaXplPSIxMiIgbGVuZ3RoQWRqdXN0PSJzcGFjaW5nIiB0ZXh0TGVuZ3RoPSI2IiB4PSIxMjYiIHk9IjE5OC4zMjgxIj5CPC90ZXh0PjxyZWN0IGZpbGw9IiNGMUYxRjEiIGhlaWdodD0iMzIuODQzOCIgcng9IjEyLjUiIHJ5PSIxMi41IiBzdHlsZT0ic3Ryb2tlOiMxODE4MTg7c3Ryb2tlLXdpZHRoOjAuNTsiIHdpZHRoPSIyNiIgeD0iNTAiIHk9IjI0NS45ODQ0Ii8+PHRleHQgZmlsbD0iIzAwMDAwMCIgZm9udC1mYW1pbHk9InNhbnMtc2VyaWYiIGZvbnQtc2l6ZT0iMTIiIGxlbmd0aEFkanVzdD0ic3BhY2luZyIgdGV4dExlbmd0aD0iNiIgeD0iNjAiIHk9IjI2Ny4zMjgxIj5WPC90ZXh0PjxyZWN0IGZpbGw9IiNGMUYxRjEiIGhlaWdodD0iMzIuODQzOCIgcng9IjEyLjUiIHJ5PSIxMi41IiBzdHlsZT0ic3Ryb2tlOiMxODE4MTg7c3Ryb2tlLXdpZHRoOjAuNTsiIHdpZHRoPSIzMiIgeD0iMTEzIiB5PSIzMTQuOTg0NCIvPjx0ZXh0IGZpbGw9IiMwMDAwMDAiIGZvbnQtZmFtaWx5PSJzYW5zLXNlcmlmIiBmb250LXNpemU9IjEyIiBsZW5ndGhBZGp1c3Q9InNwYWNpbmciIHRleHRMZW5ndGg9IjEyIiB4PSIxMjMiIHk9IjMzNi4zMjgxIj5aaDwvdGV4dD48cmVjdCBmaWxsPSIjRjFGMUYxIiBoZWlnaHQ9IjMyLjg0MzgiIHJ4PSIxMi41IiByeT0iMTIuNSIgc3R5bGU9InN0cm9rZTojMTgxODE4O3N0cm9rZS13aWR0aDowLjU7IiB3aWR0aD0iMjYiIHg9Ijk0IiB5PSIyNDUuOTg0NCIvPjx0ZXh0IGZpbGw9IiMwMDAwMDAiIGZvbnQtZmFtaWx5PSJzYW5zLXNlcmlmIiBmb250LXNpemU9IjEyIiBsZW5ndGhBZGp1c3Q9InNwYWNpbmciIHRleHRMZW5ndGg9IjYiIHg9IjEwNCIgeT0iMjY3LjMyODEiPkc8L3RleHQ+PHJlY3QgZmlsbD0iI0YxRjFGMSIgaGVpZ2h0PSIzMi44NDM4IiByeD0iMTIuNSIgcnk9IjEyLjUiIHN0eWxlPSJzdHJva2U6IzE4MTgxODtzdHJva2Utd2lkdGg6MC41OyIgd2lkdGg9IjI2IiB4PSIxMzgiIHk9IjI0NS45ODQ0Ii8+PHRleHQgZmlsbD0iIzAwMDAwMCIgZm9udC1mYW1pbHk9InNhbnMtc2VyaWYiIGZvbnQtc2l6ZT0iMTIiIGxlbmd0aEFkanVzdD0ic3BhY2luZyIgdGV4dExlbmd0aD0iNiIgeD0iMTQ4IiB5PSIyNjcuMzI4MSI+RDwvdGV4dD48cmVjdCBmaWxsPSIjRjFGMUYxIiBoZWlnaHQ9IjMyLjg0MzgiIHJ4PSIxMi41IiByeT0iMTIuNSIgc3R5bGU9InN0cm9rZTojMTgxODE4O3N0cm9rZS13aWR0aDowLjU7IiB3aWR0aD0iMjYiIHg9IjE4MiIgeT0iMjQ1Ljk4NDQiLz48dGV4dCBmaWxsPSIjMDAwMDAwIiBmb250LWZhbWlseT0ic2Fucy1zZXJpZiIgZm9udC1zaXplPSIxMiIgbGVuZ3RoQWRqdXN0PSJzcGFjaW5nIiB0ZXh0TGVuZ3RoPSI2IiB4PSIxOTIiIHk9IjI2Ny4zMjgxIj5FPC90ZXh0PjxyZWN0IGZpbGw9IiNGMUYxRjEiIGhlaWdodD0iMzIuODQzOCIgcng9IjEyLjUiIHJ5PSIxMi41IiBzdHlsZT0ic3Ryb2tlOiMxODE4MTg7c3Ryb2tlLXdpZHRoOjAuNTsiIHdpZHRoPSIyNiIgeD0iMTE2IiB5PSIzODMuOTg0NCIvPjx0ZXh0IGZpbGw9IiMwMDAwMDAiIGZvbnQtZmFtaWx5PSJzYW5zLXNlcmlmIiBmb250LXNpemU9IjEyIiBsZW5ndGhBZGp1c3Q9InNwYWNpbmciIHRleHRMZW5ndGg9IjYiIHg9IjEyNiIgeT0iNDA1LjMyODEiPlo8L3RleHQ+PHJlY3QgZmlsbD0iI0YxRjFGMSIgaGVpZ2h0PSIzMi44NDM4IiByeD0iMTIuNSIgcnk9IjEyLjUiIHN0eWxlPSJzdHJva2U6IzE4MTgxODtzdHJva2Utd2lkdGg6MC41OyIgd2lkdGg9IjI2IiB4PSIxMTYiIHk9IjQ1Mi45ODQ0Ii8+PHRleHQgZmlsbD0iIzAwMDAwMCIgZm9udC1mYW1pbHk9InNhbnMtc2VyaWYiIGZvbnQtc2l6ZT0iMTIiIGxlbmd0aEFkanVzdD0ic3BhY2luZyIgdGV4dExlbmd0aD0iNiIgeD0iMTI2IiB5PSI0NzQuMzI4MSI+STwvdGV4dD48ZWxsaXBzZSBjeD0iMTI5IiBjeT0iNTMyLjk4NDQiIGZpbGw9Im5vbmUiIHJ4PSIxMSIgcnk9IjExIiBzdHlsZT0ic3Ryb2tlOiMyMjIyMjI7c3Ryb2tlLXdpZHRoOjE7Ii8+PGVsbGlwc2UgY3g9IjEyOSIgY3k9IjUzMi45ODQ0IiBmaWxsPSIjMjIyMjIyIiByeD0iNiIgcnk9IjYiIHN0eWxlPSJzdHJva2U6IzIyMjIyMjtzdHJva2Utd2lkdGg6MTsiLz48ZyBjbGFzcz0ibGluayIgZGF0YS1lbnRpdHktMT0ic3RhcnQiIGRhdGEtZW50aXR5LTI9IkEiIGRhdGEtdWlkPSJsbms0IiBpZD0ibGlua19zdGFydF9BIj48cG9seWdvbiBmaWxsPSIjMTgxODE4IiBwb2ludHM9IjEyOSwxMDcuOTQ3MSwxMzMsOTguOTQ3MSwxMjksMTAyLjk0NzEsMTI1LDk4Ljk0NzEsMTI5LDEwNy45NDcxIiBzdHlsZT0ic3Ryb2tlOiMxODE4MTg7c3Ryb2tlLXdpZHRoOjE7Ii8+PHBhdGggZD0iTTEyOSw3Mi4xNTgxIEMxMjksODIuMTI5OSAxMjksOTAuODMxMiAxMjksMTAxLjk0NzEiIGZpbGw9Im5vbmUiIHN0eWxlPSJzdHJva2U6IzE4MTgxODtzdHJva2Utd2lkdGg6MTsiLz48L2c+PGcgY2xhc3M9ImxpbmsiIGRhdGEtZW50aXR5LTE9IkEiIGRhdGEtZW50aXR5LTI9IkIiIGRhdGEtdWlkPSJsbms2IiBpZD0ibGlua19BX0IiPjxwb2x5Z29uIGZpbGw9IiMxODE4MTgiIHBvaW50cz0iMTI5LDE3Ni41NjM4LDEzMywxNjcuNTYzOCwxMjksMTcxLjU2MzgsMTI1LDE2Ny41NjM4LDEyOSwxNzYuNTYzOCIgc3R5bGU9InN0cm9rZTojMTgxODE4O3N0cm9rZS13aWR0aDoxOyIvPjxwYXRoIGQ9Ik0xMjksMTQxLjAyMzkgQzEyOSwxNTEuNjkzMyAxMjksMTU5LjgxMzYgMTI5LDE3MC41NjM4IiBmaWxsPSJub25lIiBzdHlsZT0ic3Ryb2tlOiMxODE4MTg7c3Ryb2tlLXdpZHRoOjE7Ii8+PC9nPjxnIGNsYXNzPSJsaW5rIiBkYXRhLWVudGl0eS0xPSJCIiBkYXRhLWVudGl0eS0yPSJWIiBkYXRhLXVpZD0ibG5rOCIgaWQ9ImxpbmtfQl9WIj48cG9seWdvbiBmaWxsPSIjMTgxODE4IiBwb2ludHM9Ijc2LjAxMjQsMjQ4LjI3NDgsODUuMTc3OSwyNDQuNjcwMyw3OS41MjEyLDI0NC43MTI4LDc5LjQ3ODcsMjM5LjA1NjEsNzYuMDEyNCwyNDguMjc0OCIgc3R5bGU9InN0cm9rZTojMTgxODE4O3N0cm9rZS13aWR0aDoxOyIvPjxwYXRoIGQ9Ik0xMTUuOTYwNSwyMDcuNzIxNCBDMTA0LjM4OTgsMjE5LjQ2NzQgOTEuNzg1NSwyMzIuMjYyNyA4MC4yMjMsMjQ0LjAwMDQiIGZpbGw9Im5vbmUiIHN0eWxlPSJzdHJva2U6IzE4MTgxODtzdHJva2Utd2lkdGg6MTsiLz48L2c+PGcgY2xhc3M9ImxpbmsiIGRhdGEtZW50aXR5LTE9IlYiIGRhdGEtZW50aXR5LTI9IlpoIiBkYXRhLXVpZD0ibG5rMTAiIGlkPSJsaW5rX1ZfWmgiPjxwb2x5Z29uIGZpbGw9IiMxODE4MTgiIHBvaW50cz0iMTEzLjY3MTYsMzE0LjkyMzcsMTEwLjIwNTMsMzA1LjcwNSwxMTAuMTYyOCwzMTEuMzYxNywxMDQuNTA2MSwzMTEuMzE5MiwxMTMuNjcxNiwzMTQuOTIzNyIgc3R5bGU9InN0cm9rZTojMTgxODE4O3N0cm9rZS13aWR0aDoxOyIvPjxwYXRoIGQ9Ik03Ni4wMzk1LDI3Ni43MjE0IEM4Ni44NTg4LDI4Ny43MDQ3IDk4LjA1MjgsMjk5LjA2ODMgMTA5LjQ2MSwzMTAuNjQ5MyIgZmlsbD0ibm9uZSIgc3R5bGU9InN0cm9rZTojMTgxODE4O3N0cm9rZS13aWR0aDoxOyIvPjwvZz48ZyBjbGFzcz0ibGluayIgZGF0YS1lbnRpdHktMT0iQiIgZGF0YS1lbnRpdHktMj0iRyIgZGF0YS11aWQ9ImxuazEyIiBpZD0ibGlua19CX0ciPjxwb2x5Z29uIGZpbGw9IiMxODE4MTgiIHBvaW50cz0iMTEyLjIyNzYsMjQ1LjU2MzgsMTE4LjgzNTcsMjM4LjI2MDksMTEzLjc4NzUsMjQwLjgxMzQsMTExLjIzNSwyMzUuNzY1MSwxMTIuMjI3NiwyNDUuNTYzOCIgc3R5bGU9InN0cm9rZTojMTgxODE4O3N0cm9rZS13aWR0aDoxOyIvPjxwYXRoIGQ9Ik0xMjMuODk3NSwyMTAuMDIzOSBDMTIwLjM5NDEsMjIwLjY5MzMgMTE3LjYyOTQsMjI5LjExMyAxMTQuMDk5NSwyMzkuODYzMyIgZmlsbD0ibm9uZSIgc3R5bGU9InN0cm9rZTojMTgxODE4O3N0cm9rZS13aWR0aDoxOyIvPjwvZz48ZyBjbGFzcz0ibGluayIgZGF0YS1lbnRpdHktMT0iRyIgZGF0YS1lbnRpdHktMj0iWmgiIGRhdGEtdWlkPSJsbmsxMyIgaWQ9ImxpbmtfR19aaCI+PHBvbHlnb24gZmlsbD0iIzE4MTgxOCIgcG9pbnRzPSIxMjMuNzcyNCwzMTQuNTYzOCwxMjQuNzY1LDMwNC43NjUxLDEyMi4yMTI1LDMwOS44MTM0LDExNy4xNjQzLDMwNy4yNjA5LDEyMy43NzI0LDMxNC41NjM4IiBzdHlsZT0ic3Ryb2tlOiMxODE4MTg7c3Ryb2tlLXdpZHRoOjE7Ii8+PHBhdGggZD0iTTExMi4xMDI1LDI3OS4wMjM5IEMxMTUuNjA1OSwyODkuNjkzMyAxMTguMzcwNiwyOTguMTEzIDEyMS45MDA1LDMwOC44NjMzIiBmaWxsPSJub25lIiBzdHlsZT0ic3Ryb2tlOiMxODE4MTg7c3Ryb2tlLXdpZHRoOjE7Ii8+PC9nPjxnIGNsYXNzPSJsaW5rIiBkYXRhLWVudGl0eS0xPSJCIiBkYXRhLWVudGl0eS0yPSJEIiBkYXRhLXVpZD0ibG5rMTUiIGlkPSJsaW5rX0JfRCI+PHBvbHlnb24gZmlsbD0iIzE4MTgxOCIgcG9pbnRzPSIxNDUuNzcyNCwyNDUuNTYzOCwxNDYuNzY1LDIzNS43NjUxLDE0NC4yMTI1LDI0MC44MTM0LDEzOS4xNjQzLDIzOC4yNjA5LDE0NS43NzI0LDI0NS41NjM4IiBzdHlsZT0ic3Ryb2tlOiMxODE4MTg7c3Ryb2tlLXdpZHRoOjE7Ii8+PHBhdGggZD0iTTEzNC4xMDI1LDIxMC4wMjM5IEMxMzcuNjA1OSwyMjAuNjkzMyAxNDAuMzcwNiwyMjkuMTEzIDE0My45MDA1LDIzOS44NjMzIiBmaWxsPSJub25lIiBzdHlsZT0ic3Ryb2tlOiMxODE4MTg7c3Ryb2tlLXdpZHRoOjE7Ii8+PC9nPjxnIGNsYXNzPSJsaW5rIiBkYXRhLWVudGl0eS0xPSJEIiBkYXRhLWVudGl0eS0yPSJaaCIgZGF0YS11aWQ9ImxuazE2IiBpZD0ibGlua19EX1poIj48cG9seWdvbiBmaWxsPSIjMTgxODE4IiBwb2ludHM9IjEzNC4yMjc2LDMxNC41NjM4LDE0MC44MzU3LDMwNy4yNjA5LDEzNS43ODc1LDMwOS44MTM0LDEzMy4yMzUsMzA0Ljc2NTEsMTM0LjIyNzYsMzE0LjU2MzgiIHN0eWxlPSJzdHJva2U6IzE4MTgxODtzdHJva2Utd2lkdGg6MTsiLz48cGF0aCBkPSJNMTQ1Ljg5NzUsMjc5LjAyMzkgQzE0Mi4zOTQxLDI4OS42OTMzIDEzOS42Mjk0LDI5OC4xMTMgMTM2LjA5OTUsMzA4Ljg2MzMiIGZpbGw9Im5vbmUiIHN0eWxlPSJzdHJva2U6IzE4MTgxODtzdHJva2Utd2lkdGg6MTsiLz48L2c+PGcgY2xhc3M9ImxpbmsiIGRhdGEtZW50aXR5LTE9IkIiIGRhdGEtZW50aXR5LTI9IkUiIGRhdGEtdWlkPSJsbmsxOCIgaWQ9ImxpbmtfQl9FIj48cG9seWdvbiBmaWxsPSIjMTgxODE4IiBwb2ludHM9IjE4MS45ODc2LDI0OC4yNzQ4LDE3OC41MjEzLDIzOS4wNTYxLDE3OC40Nzg4LDI0NC43MTI4LDE3Mi44MjIxLDI0NC42NzAzLDE4MS45ODc2LDI0OC4yNzQ4IiBzdHlsZT0ic3Ryb2tlOiMxODE4MTg7c3Ryb2tlLXdpZHRoOjE7Ii8+PHBhdGggZD0iTTE0Mi4wMzk1LDIwNy43MjE0IEMxNTMuNjEwMiwyMTkuNDY3NCAxNjYuMjE0NSwyMzIuMjYyNyAxNzcuNzc3LDI0NC4wMDA0IiBmaWxsPSJub25lIiBzdHlsZT0ic3Ryb2tlOiMxODE4MTg7c3Ryb2tlLXdpZHRoOjE7Ii8+PC9nPjxnIGNsYXNzPSJsaW5rIiBkYXRhLWVudGl0eS0xPSJFIiBkYXRhLWVudGl0eS0yPSJaaCIgZGF0YS11aWQ9ImxuazE5IiBpZD0ibGlua19FX1poIj48cG9seWdvbiBmaWxsPSIjMTgxODE4IiBwb2ludHM9IjE0NC4zMjg0LDMxNC45MjM3LDE1My40OTM5LDMxMS4zMTkyLDE0Ny44MzcyLDMxMS4zNjE3LDE0Ny43OTQ3LDMwNS43MDUsMTQ0LjMyODQsMzE0LjkyMzciIHN0eWxlPSJzdHJva2U6IzE4MTgxODtzdHJva2Utd2lkdGg6MTsiLz48cGF0aCBkPSJNMTgxLjk2MDUsMjc2LjcyMTQgQzE3MS4xNDEyLDI4Ny43MDQ3IDE1OS45NDcyLDI5OS4wNjgzIDE0OC41MzksMzEwLjY0OTMiIGZpbGw9Im5vbmUiIHN0eWxlPSJzdHJva2U6IzE4MTgxODtzdHJva2Utd2lkdGg6MTsiLz48L2c+PGcgY2xhc3M9ImxpbmsiIGRhdGEtZW50aXR5LTE9IlpoIiBkYXRhLWVudGl0eS0yPSJaIiBkYXRhLXVpZD0ibG5rMjEiIGlkPSJsaW5rX1poX1oiPjxwb2x5Z29uIGZpbGw9IiMxODE4MTgiIHBvaW50cz0iMTI5LDM4My41NjM4LDEzMywzNzQuNTYzOCwxMjksMzc4LjU2MzgsMTI1LDM3NC41NjM4LDEyOSwzODMuNTYzOCIgc3R5bGU9InN0cm9rZTojMTgxODE4O3N0cm9rZS13aWR0aDoxOyIvPjxwYXRoIGQ9Ik0xMjksMzQ4LjAyMzkgQzEyOSwzNTguNjkzMyAxMjksMzY2LjgxMzYgMTI5LDM3Ny41NjM4IiBmaWxsPSJub25lIiBzdHlsZT0ic3Ryb2tlOiMxODE4MTg7c3Ryb2tlLXdpZHRoOjE7Ii8+PC9nPjxnIGNsYXNzPSJsaW5rIiBkYXRhLWVudGl0eS0xPSJaIiBkYXRhLWVudGl0eS0yPSJJIiBkYXRhLXVpZD0ibG5rMjMiIGlkPSJsaW5rX1pfSSI+PHBvbHlnb24gZmlsbD0iIzE4MTgxOCIgcG9pbnRzPSIxMjksNDUyLjU2MzgsMTMzLDQ0My41NjM4LDEyOSw0NDcuNTYzOCwxMjUsNDQzLjU2MzgsMTI5LDQ1Mi41NjM4IiBzdHlsZT0ic3Ryb2tlOiMxODE4MTg7c3Ryb2tlLXdpZHRoOjE7Ii8+PHBhdGggZD0iTTEyOSw0MTcuMDIzOSBDMTI5LDQyNy42OTMzIDEyOSw0MzUuODEzNiAxMjksNDQ2LjU2MzgiIGZpbGw9Im5vbmUiIHN0eWxlPSJzdHJva2U6IzE4MTgxODtzdHJva2Utd2lkdGg6MTsiLz48L2c+PGcgY2xhc3M9ImxpbmsiIGRhdGEtZW50aXR5LTE9IkkiIGRhdGEtZW50aXR5LTI9ImVuZCIgZGF0YS11aWQ9ImxuazI1IiBpZD0ibGlua19JX2VuZCI+PHBvbHlnb24gZmlsbD0iIzE4MTgxOCIgcG9pbnRzPSIxMjksNTIxLjk0NTUsMTMzLDUxMi45NDU1LDEyOSw1MTYuOTQ1NSwxMjUsNTEyLjk0NTUsMTI5LDUyMS45NDU1IiBzdHlsZT0ic3Ryb2tlOiMxODE4MTg7c3Ryb2tlLXdpZHRoOjE7Ii8+PHBhdGggZD0iTTEyOSw0ODYuMjU1OCBDMTI5LDQ5Ny4zOTM4IDEyOSw1MDYuMDQxNCAxMjksNTE1Ljk0NTUiIGZpbGw9Im5vbmUiIHN0eWxlPSJzdHJva2U6IzE4MTgxODtzdHJva2Utd2lkdGg6MTsiLz48L2c+PCEtLVNSQz1bS29tZUlhcEZKTEo4SVFwQ0JvckhBQ3ZEQktkQ0ktSllBaWFpb0tiTGtCM21talFCSkhVc05qWHFPVC01ZEdlTkRiemlrQjNYT2VpMllCZ215U0EtWXFxQTZhM3ZWSFRzTi1vdmlFbDJGZUtCNm95czBuY1JCZFBoU2Q1ZlE2YWd3RWhRQUpYb0VPOWY5b3VrOXAwWloyaUNKNFRibTRKU2tUcEhINW91TkQxNE5CYlN1STlINkgwY0xuSU96a0pvMUREMDZtNDBdLS0+PC9nPjwvc3ZnPg==;" vertex="1" parent="1">
            <mxGeometry x="260" y="1410" width="259.47" height="550" as="geometry" />
          </mxCell>
        </UserObject>
        <UserObject label="" plantUmlData="{&#xa;  &quot;data&quot;: &quot;@startuml\n!pragma layout smetana\n\ntitle Сетевой граф работ (русские буквы)\n\n(*) --&gt; А\nА --&gt; Б\n\nБ --&gt; В\nВ --&gt; Ж\n\nБ --&gt; Г\nГ --&gt; Ж\n\nБ --&gt; Д\nД --&gt; Ж\n\nБ --&gt; Е\nЕ --&gt; Ж\n\nЖ --&gt; З\nЗ --&gt; И\nИ --&gt; (*)\n\n@enduml\n&quot;,&#xa;  &quot;format&quot;: &quot;svg&quot;&#xa;}" id="MgeT7F4WineAnSfHMYRI-5">
          <mxCell style="shape=image;noLabel=1;verticalAlign=top;aspect=fixed;imageAspect=0;image=data:image/svg+xml,PHN2ZyB4bWxucz0iaHR0cDovL3d3dy53My5vcmcvMjAwMC9zdmciIHhtbG5zOnhsaW5rPSJodHRwOi8vd3d3LnczLm9yZy8xOTk5L3hsaW5rIiBjb250ZW50U3R5bGVUeXBlPSJ0ZXh0L2NzcyIgZGF0YS1kaWFncmFtLXR5cGU9IkFDVElWSVRZIiBoZWlnaHQ9IjU0OXB4IiBwcmVzZXJ2ZUFzcGVjdFJhdGlvPSJub25lIiBzdHlsZT0id2lkdGg6MjY2cHg7aGVpZ2h0OjU0OXB4O2JhY2tncm91bmQ6I0ZGRkZGRjsiIHZlcnNpb249IjEuMSIgdmlld0JveD0iMCAwIDI2NiA1NDkiIHdpZHRoPSIyNjZweCIgem9vbUFuZFBhbj0ibWFnbmlmeSI+PHRpdGxlPiYjMTA1NzsmIzEwNzc7JiMxMDkwOyYjMTA3NzsmIzEwNzQ7JiMxMDg2OyYjMTA4MTsgJiMxMDc1OyYjMTA4ODsmIzEwNzI7JiMxMDkyOyAmIzEwODg7JiMxMDcyOyYjMTA3MzsmIzEwODY7JiMxMDkwOyAoJiMxMDg4OyYjMTA5MTsmIzEwODk7JiMxMDg5OyYjMTA4MjsmIzEwODA7JiMxMDc3OyAmIzEwNzM7JiMxMDkxOyYjMTA4MjsmIzEwNzQ7JiMxMDk5Oyk8L3RpdGxlPjxkZWZzLz48Zz48dGV4dCBmaWxsPSIjMDAwMDAwIiBmb250LWZhbWlseT0ic2Fucy1zZXJpZiIgZm9udC1zaXplPSIxNCIgZm9udC13ZWlnaHQ9ImJvbGQiIGxlbmd0aEFkanVzdD0ic3BhY2luZyIgdGV4dExlbmd0aD0iMjM4IiB4PSIxMCIgeT0iMjMuMjM0NCI+JiMxMDU3OyYjMTA3NzsmIzEwOTA7JiMxMDc3OyYjMTA3NDsmIzEwODY7JiMxMDgxOyAmIzEwNzU7JiMxMDg4OyYjMTA3MjsmIzEwOTI7ICYjMTA4ODsmIzEwNzI7JiMxMDczOyYjMTA4NjsmIzEwOTA7ICgmIzEwODg7JiMxMDkxOyYjMTA4OTsmIzEwODk7JiMxMDgyOyYjMTA4MDsmIzEwNzc7ICYjMTA3MzsmIzEwOTE7JiMxMDgyOyYjMTA3NDsmIzEwOTk7KTwvdGV4dD48ZWxsaXBzZSBjeD0iMTMyLjUiIGN5PSI1Ny45ODQ0IiBmaWxsPSIjMjIyMjIyIiByeD0iMTAiIHJ5PSIxMCIgc3R5bGU9InN0cm9rZTojMjIyMjIyO3N0cm9rZS13aWR0aDoxOyIvPjxyZWN0IGZpbGw9IiNGMUYxRjEiIGhlaWdodD0iMzIuODQzOCIgcng9IjEyLjUiIHJ5PSIxMi41IiBzdHlsZT0ic3Ryb2tlOiMxODE4MTg7c3Ryb2tlLXdpZHRoOjAuNTsiIHdpZHRoPSIyNiIgeD0iMTE5LjUiIHk9IjEwNy45ODQ0Ii8+PHRleHQgZmlsbD0iIzAwMDAwMCIgZm9udC1mYW1pbHk9InNhbnMtc2VyaWYiIGZvbnQtc2l6ZT0iMTIiIGxlbmd0aEFkanVzdD0ic3BhY2luZyIgdGV4dExlbmd0aD0iNiIgeD0iMTI5LjUiIHk9IjEyOS4zMjgxIj4mIzEwNDA7PC90ZXh0PjxyZWN0IGZpbGw9IiNGMUYxRjEiIGhlaWdodD0iMzIuODQzOCIgcng9IjEyLjUiIHJ5PSIxMi41IiBzdHlsZT0ic3Ryb2tlOiMxODE4MTg7c3Ryb2tlLXdpZHRoOjAuNTsiIHdpZHRoPSIyNiIgeD0iMTE5LjUiIHk9IjE3Ni45ODQ0Ii8+PHRleHQgZmlsbD0iIzAwMDAwMCIgZm9udC1mYW1pbHk9InNhbnMtc2VyaWYiIGZvbnQtc2l6ZT0iMTIiIGxlbmd0aEFkanVzdD0ic3BhY2luZyIgdGV4dExlbmd0aD0iNiIgeD0iMTI5LjUiIHk9IjE5OC4zMjgxIj4mIzEwNDE7PC90ZXh0PjxyZWN0IGZpbGw9IiNGMUYxRjEiIGhlaWdodD0iMzIuODQzOCIgcng9IjEyLjUiIHJ5PSIxMi41IiBzdHlsZT0ic3Ryb2tlOiMxODE4MTg7c3Ryb2tlLXdpZHRoOjAuNTsiIHdpZHRoPSIyNiIgeD0iNTMuNSIgeT0iMjQ1Ljk4NDQiLz48dGV4dCBmaWxsPSIjMDAwMDAwIiBmb250LWZhbWlseT0ic2Fucy1zZXJpZiIgZm9udC1zaXplPSIxMiIgbGVuZ3RoQWRqdXN0PSJzcGFjaW5nIiB0ZXh0TGVuZ3RoPSI2IiB4PSI2My41IiB5PSIyNjcuMzI4MSI+JiMxMDQyOzwvdGV4dD48cmVjdCBmaWxsPSIjRjFGMUYxIiBoZWlnaHQ9IjMyLjg0MzgiIHJ4PSIxMi41IiByeT0iMTIuNSIgc3R5bGU9InN0cm9rZTojMTgxODE4O3N0cm9rZS13aWR0aDowLjU7IiB3aWR0aD0iMjYiIHg9IjExOS41IiB5PSIzMTQuOTg0NCIvPjx0ZXh0IGZpbGw9IiMwMDAwMDAiIGZvbnQtZmFtaWx5PSJzYW5zLXNlcmlmIiBmb250LXNpemU9IjEyIiBsZW5ndGhBZGp1c3Q9InNwYWNpbmciIHRleHRMZW5ndGg9IjYiIHg9IjEyOS41IiB5PSIzMzYuMzI4MSI+JiMxMDQ2OzwvdGV4dD48cmVjdCBmaWxsPSIjRjFGMUYxIiBoZWlnaHQ9IjMyLjg0MzgiIHJ4PSIxMi41IiByeT0iMTIuNSIgc3R5bGU9InN0cm9rZTojMTgxODE4O3N0cm9rZS13aWR0aDowLjU7IiB3aWR0aD0iMjYiIHg9Ijk3LjUiIHk9IjI0NS45ODQ0Ii8+PHRleHQgZmlsbD0iIzAwMDAwMCIgZm9udC1mYW1pbHk9InNhbnMtc2VyaWYiIGZvbnQtc2l6ZT0iMTIiIGxlbmd0aEFkanVzdD0ic3BhY2luZyIgdGV4dExlbmd0aD0iNiIgeD0iMTA3LjUiIHk9IjI2Ny4zMjgxIj4mIzEwNDM7PC90ZXh0PjxyZWN0IGZpbGw9IiNGMUYxRjEiIGhlaWdodD0iMzIuODQzOCIgcng9IjEyLjUiIHJ5PSIxMi41IiBzdHlsZT0ic3Ryb2tlOiMxODE4MTg7c3Ryb2tlLXdpZHRoOjAuNTsiIHdpZHRoPSIyNiIgeD0iMTQxLjUiIHk9IjI0NS45ODQ0Ii8+PHRleHQgZmlsbD0iIzAwMDAwMCIgZm9udC1mYW1pbHk9InNhbnMtc2VyaWYiIGZvbnQtc2l6ZT0iMTIiIGxlbmd0aEFkanVzdD0ic3BhY2luZyIgdGV4dExlbmd0aD0iNiIgeD0iMTUxLjUiIHk9IjI2Ny4zMjgxIj4mIzEwNDQ7PC90ZXh0PjxyZWN0IGZpbGw9IiNGMUYxRjEiIGhlaWdodD0iMzIuODQzOCIgcng9IjEyLjUiIHJ5PSIxMi41IiBzdHlsZT0ic3Ryb2tlOiMxODE4MTg7c3Ryb2tlLXdpZHRoOjAuNTsiIHdpZHRoPSIyNiIgeD0iMTg1LjUiIHk9IjI0NS45ODQ0Ii8+PHRleHQgZmlsbD0iIzAwMDAwMCIgZm9udC1mYW1pbHk9InNhbnMtc2VyaWYiIGZvbnQtc2l6ZT0iMTIiIGxlbmd0aEFkanVzdD0ic3BhY2luZyIgdGV4dExlbmd0aD0iNiIgeD0iMTk1LjUiIHk9IjI2Ny4zMjgxIj4mIzEwNDU7PC90ZXh0PjxyZWN0IGZpbGw9IiNGMUYxRjEiIGhlaWdodD0iMzIuODQzOCIgcng9IjEyLjUiIHJ5PSIxMi41IiBzdHlsZT0ic3Ryb2tlOiMxODE4MTg7c3Ryb2tlLXdpZHRoOjAuNTsiIHdpZHRoPSIyNiIgeD0iMTE5LjUiIHk9IjM4My45ODQ0Ii8+PHRleHQgZmlsbD0iIzAwMDAwMCIgZm9udC1mYW1pbHk9InNhbnMtc2VyaWYiIGZvbnQtc2l6ZT0iMTIiIGxlbmd0aEFkanVzdD0ic3BhY2luZyIgdGV4dExlbmd0aD0iNiIgeD0iMTI5LjUiIHk9IjQwNS4zMjgxIj4mIzEwNDc7PC90ZXh0PjxyZWN0IGZpbGw9IiNGMUYxRjEiIGhlaWdodD0iMzIuODQzOCIgcng9IjEyLjUiIHJ5PSIxMi41IiBzdHlsZT0ic3Ryb2tlOiMxODE4MTg7c3Ryb2tlLXdpZHRoOjAuNTsiIHdpZHRoPSIyNiIgeD0iMTE5LjUiIHk9IjQ1Mi45ODQ0Ii8+PHRleHQgZmlsbD0iIzAwMDAwMCIgZm9udC1mYW1pbHk9InNhbnMtc2VyaWYiIGZvbnQtc2l6ZT0iMTIiIGxlbmd0aEFkanVzdD0ic3BhY2luZyIgdGV4dExlbmd0aD0iNiIgeD0iMTI5LjUiIHk9IjQ3NC4zMjgxIj4mIzEwNDg7PC90ZXh0PjxlbGxpcHNlIGN4PSIxMzIuNSIgY3k9IjUzMi45ODQ0IiBmaWxsPSJub25lIiByeD0iMTEiIHJ5PSIxMSIgc3R5bGU9InN0cm9rZTojMjIyMjIyO3N0cm9rZS13aWR0aDoxOyIvPjxlbGxpcHNlIGN4PSIxMzIuNSIgY3k9IjUzMi45ODQ0IiBmaWxsPSIjMjIyMjIyIiByeD0iNiIgcnk9IjYiIHN0eWxlPSJzdHJva2U6IzIyMjIyMjtzdHJva2Utd2lkdGg6MTsiLz48ZyBjbGFzcz0ibGluayIgZGF0YS1lbnRpdHktMT0ic3RhcnQiIGRhdGEtZW50aXR5LTI9IiYjMTA0MDsiIGRhdGEtdWlkPSJsbms0IiBpZD0ibGlua19zdGFydF8mIzEwNDA7Ij48cG9seWdvbiBmaWxsPSIjMTgxODE4IiBwb2ludHM9IjEzMi41LDEwNy45NDcxLDEzNi41LDk4Ljk0NzEsMTMyLjUsMTAyLjk0NzEsMTI4LjUsOTguOTQ3MSwxMzIuNSwxMDcuOTQ3MSIgc3R5bGU9InN0cm9rZTojMTgxODE4O3N0cm9rZS13aWR0aDoxOyIvPjxwYXRoIGQ9Ik0xMzIuNSw3Mi4xNTgxIEMxMzIuNSw4Mi4xMjk5IDEzMi41LDkwLjgzMTIgMTMyLjUsMTAxLjk0NzEiIGZpbGw9Im5vbmUiIHN0eWxlPSJzdHJva2U6IzE4MTgxODtzdHJva2Utd2lkdGg6MTsiLz48L2c+PGcgY2xhc3M9ImxpbmsiIGRhdGEtZW50aXR5LTE9IiYjMTA0MDsiIGRhdGEtZW50aXR5LTI9IiYjMTA0MTsiIGRhdGEtdWlkPSJsbms2IiBpZD0ibGlua18mIzEwNDA7XyYjMTA0MTsiPjxwb2x5Z29uIGZpbGw9IiMxODE4MTgiIHBvaW50cz0iMTMyLjUsMTc2LjU2MzgsMTM2LjUsMTY3LjU2MzgsMTMyLjUsMTcxLjU2MzgsMTI4LjUsMTY3LjU2MzgsMTMyLjUsMTc2LjU2MzgiIHN0eWxlPSJzdHJva2U6IzE4MTgxODtzdHJva2Utd2lkdGg6MTsiLz48cGF0aCBkPSJNMTMyLjUsMTQxLjAyMzkgQzEzMi41LDE1MS42OTMzIDEzMi41LDE1OS44MTM2IDEzMi41LDE3MC41NjM4IiBmaWxsPSJub25lIiBzdHlsZT0ic3Ryb2tlOiMxODE4MTg7c3Ryb2tlLXdpZHRoOjE7Ii8+PC9nPjxnIGNsYXNzPSJsaW5rIiBkYXRhLWVudGl0eS0xPSImIzEwNDE7IiBkYXRhLWVudGl0eS0yPSImIzEwNDI7IiBkYXRhLXVpZD0ibG5rOCIgaWQ9ImxpbmtfJiMxMDQxO18mIzEwNDI7Ij48cG9seWdvbiBmaWxsPSIjMTgxODE4IiBwb2ludHM9Ijc5LjUxMjQsMjQ4LjI3NDgsODguNjc3OSwyNDQuNjcwMyw4My4wMjEyLDI0NC43MTI4LDgyLjk3ODcsMjM5LjA1NjEsNzkuNTEyNCwyNDguMjc0OCIgc3R5bGU9InN0cm9rZTojMTgxODE4O3N0cm9rZS13aWR0aDoxOyIvPjxwYXRoIGQ9Ik0xMTkuNDYwNSwyMDcuNzIxNCBDMTA3Ljg4OTgsMjE5LjQ2NzQgOTUuMjg1NSwyMzIuMjYyNyA4My43MjMsMjQ0LjAwMDQiIGZpbGw9Im5vbmUiIHN0eWxlPSJzdHJva2U6IzE4MTgxODtzdHJva2Utd2lkdGg6MTsiLz48L2c+PGcgY2xhc3M9ImxpbmsiIGRhdGEtZW50aXR5LTE9IiYjMTA0MjsiIGRhdGEtZW50aXR5LTI9IiYjMTA0NjsiIGRhdGEtdWlkPSJsbmsxMCIgaWQ9ImxpbmtfJiMxMDQyO18mIzEwNDY7Ij48cG9seWdvbiBmaWxsPSIjMTgxODE4IiBwb2ludHM9IjExOS40ODc2LDMxNy4yNzQ4LDExNi4wMjEzLDMwOC4wNTYxLDExNS45Nzg4LDMxMy43MTI4LDExMC4zMjIxLDMxMy42NzAzLDExOS40ODc2LDMxNy4yNzQ4IiBzdHlsZT0ic3Ryb2tlOiMxODE4MTg7c3Ryb2tlLXdpZHRoOjE7Ii8+PHBhdGggZD0iTTc5LjUzOTUsMjc2LjcyMTQgQzkxLjExMDIsMjg4LjQ2NzQgMTAzLjcxNDUsMzAxLjI2MjcgMTE1LjI3NywzMTMuMDAwNCIgZmlsbD0ibm9uZSIgc3R5bGU9InN0cm9rZTojMTgxODE4O3N0cm9rZS13aWR0aDoxOyIvPjwvZz48ZyBjbGFzcz0ibGluayIgZGF0YS1lbnRpdHktMT0iJiMxMDQxOyIgZGF0YS1lbnRpdHktMj0iJiMxMDQzOyIgZGF0YS11aWQ9ImxuazEyIiBpZD0ibGlua18mIzEwNDE7XyYjMTA0MzsiPjxwb2x5Z29uIGZpbGw9IiMxODE4MTgiIHBvaW50cz0iMTE1LjcyNzYsMjQ1LjU2MzgsMTIyLjMzNTcsMjM4LjI2MDksMTE3LjI4NzUsMjQwLjgxMzQsMTE0LjczNSwyMzUuNzY1MSwxMTUuNzI3NiwyNDUuNTYzOCIgc3R5bGU9InN0cm9rZTojMTgxODE4O3N0cm9rZS13aWR0aDoxOyIvPjxwYXRoIGQ9Ik0xMjcuMzk3NSwyMTAuMDIzOSBDMTIzLjg5NDEsMjIwLjY5MzMgMTIxLjEyOTQsMjI5LjExMyAxMTcuNTk5NSwyMzkuODYzMyIgZmlsbD0ibm9uZSIgc3R5bGU9InN0cm9rZTojMTgxODE4O3N0cm9rZS13aWR0aDoxOyIvPjwvZz48ZyBjbGFzcz0ibGluayIgZGF0YS1lbnRpdHktMT0iJiMxMDQzOyIgZGF0YS1lbnRpdHktMj0iJiMxMDQ2OyIgZGF0YS11aWQ9ImxuazEzIiBpZD0ibGlua18mIzEwNDM7XyYjMTA0NjsiPjxwb2x5Z29uIGZpbGw9IiMxODE4MTgiIHBvaW50cz0iMTI3LjI3MjQsMzE0LjU2MzgsMTI4LjI2NSwzMDQuNzY1MSwxMjUuNzEyNSwzMDkuODEzNCwxMjAuNjY0MywzMDcuMjYwOSwxMjcuMjcyNCwzMTQuNTYzOCIgc3R5bGU9InN0cm9rZTojMTgxODE4O3N0cm9rZS13aWR0aDoxOyIvPjxwYXRoIGQ9Ik0xMTUuNjAyNSwyNzkuMDIzOSBDMTE5LjEwNTksMjg5LjY5MzMgMTIxLjg3MDYsMjk4LjExMyAxMjUuNDAwNSwzMDguODYzMyIgZmlsbD0ibm9uZSIgc3R5bGU9InN0cm9rZTojMTgxODE4O3N0cm9rZS13aWR0aDoxOyIvPjwvZz48ZyBjbGFzcz0ibGluayIgZGF0YS1lbnRpdHktMT0iJiMxMDQxOyIgZGF0YS1lbnRpdHktMj0iJiMxMDQ0OyIgZGF0YS11aWQ9ImxuazE1IiBpZD0ibGlua18mIzEwNDE7XyYjMTA0NDsiPjxwb2x5Z29uIGZpbGw9IiMxODE4MTgiIHBvaW50cz0iMTQ5LjI3MjQsMjQ1LjU2MzgsMTUwLjI2NSwyMzUuNzY1MSwxNDcuNzEyNSwyNDAuODEzNCwxNDIuNjY0MywyMzguMjYwOSwxNDkuMjcyNCwyNDUuNTYzOCIgc3R5bGU9InN0cm9rZTojMTgxODE4O3N0cm9rZS13aWR0aDoxOyIvPjxwYXRoIGQ9Ik0xMzcuNjAyNSwyMTAuMDIzOSBDMTQxLjEwNTksMjIwLjY5MzMgMTQzLjg3MDYsMjI5LjExMyAxNDcuNDAwNSwyMzkuODYzMyIgZmlsbD0ibm9uZSIgc3R5bGU9InN0cm9rZTojMTgxODE4O3N0cm9rZS13aWR0aDoxOyIvPjwvZz48ZyBjbGFzcz0ibGluayIgZGF0YS1lbnRpdHktMT0iJiMxMDQ0OyIgZGF0YS1lbnRpdHktMj0iJiMxMDQ2OyIgZGF0YS11aWQ9ImxuazE2IiBpZD0ibGlua18mIzEwNDQ7XyYjMTA0NjsiPjxwb2x5Z29uIGZpbGw9IiMxODE4MTgiIHBvaW50cz0iMTM3LjcyNzYsMzE0LjU2MzgsMTQ0LjMzNTcsMzA3LjI2MDksMTM5LjI4NzUsMzA5LjgxMzQsMTM2LjczNSwzMDQuNzY1MSwxMzcuNzI3NiwzMTQuNTYzOCIgc3R5bGU9InN0cm9rZTojMTgxODE4O3N0cm9rZS13aWR0aDoxOyIvPjxwYXRoIGQ9Ik0xNDkuMzk3NSwyNzkuMDIzOSBDMTQ1Ljg5NDEsMjg5LjY5MzMgMTQzLjEyOTQsMjk4LjExMyAxMzkuNTk5NSwzMDguODYzMyIgZmlsbD0ibm9uZSIgc3R5bGU9InN0cm9rZTojMTgxODE4O3N0cm9rZS13aWR0aDoxOyIvPjwvZz48ZyBjbGFzcz0ibGluayIgZGF0YS1lbnRpdHktMT0iJiMxMDQxOyIgZGF0YS1lbnRpdHktMj0iJiMxMDQ1OyIgZGF0YS11aWQ9ImxuazE4IiBpZD0ibGlua18mIzEwNDE7XyYjMTA0NTsiPjxwb2x5Z29uIGZpbGw9IiMxODE4MTgiIHBvaW50cz0iMTg1LjQ4NzYsMjQ4LjI3NDgsMTgyLjAyMTMsMjM5LjA1NjEsMTgxLjk3ODgsMjQ0LjcxMjgsMTc2LjMyMjEsMjQ0LjY3MDMsMTg1LjQ4NzYsMjQ4LjI3NDgiIHN0eWxlPSJzdHJva2U6IzE4MTgxODtzdHJva2Utd2lkdGg6MTsiLz48cGF0aCBkPSJNMTQ1LjUzOTUsMjA3LjcyMTQgQzE1Ny4xMTAyLDIxOS40Njc0IDE2OS43MTQ1LDIzMi4yNjI3IDE4MS4yNzcsMjQ0LjAwMDQiIGZpbGw9Im5vbmUiIHN0eWxlPSJzdHJva2U6IzE4MTgxODtzdHJva2Utd2lkdGg6MTsiLz48L2c+PGcgY2xhc3M9ImxpbmsiIGRhdGEtZW50aXR5LTE9IiYjMTA0NTsiIGRhdGEtZW50aXR5LTI9IiYjMTA0NjsiIGRhdGEtdWlkPSJsbmsxOSIgaWQ9ImxpbmtfJiMxMDQ1O18mIzEwNDY7Ij48cG9seWdvbiBmaWxsPSIjMTgxODE4IiBwb2ludHM9IjE0NS41MTI0LDMxNy4yNzQ4LDE1NC42Nzc5LDMxMy42NzAzLDE0OS4wMjEyLDMxMy43MTI4LDE0OC45Nzg3LDMwOC4wNTYxLDE0NS41MTI0LDMxNy4yNzQ4IiBzdHlsZT0ic3Ryb2tlOiMxODE4MTg7c3Ryb2tlLXdpZHRoOjE7Ii8+PHBhdGggZD0iTTE4NS40NjA1LDI3Ni43MjE0IEMxNzMuODg5OCwyODguNDY3NCAxNjEuMjg1NSwzMDEuMjYyNyAxNDkuNzIzLDMxMy4wMDA0IiBmaWxsPSJub25lIiBzdHlsZT0ic3Ryb2tlOiMxODE4MTg7c3Ryb2tlLXdpZHRoOjE7Ii8+PC9nPjxnIGNsYXNzPSJsaW5rIiBkYXRhLWVudGl0eS0xPSImIzEwNDY7IiBkYXRhLWVudGl0eS0yPSImIzEwNDc7IiBkYXRhLXVpZD0ibG5rMjEiIGlkPSJsaW5rXyYjMTA0NjtfJiMxMDQ3OyI+PHBvbHlnb24gZmlsbD0iIzE4MTgxOCIgcG9pbnRzPSIxMzIuNSwzODMuNTYzOCwxMzYuNSwzNzQuNTYzOCwxMzIuNSwzNzguNTYzOCwxMjguNSwzNzQuNTYzOCwxMzIuNSwzODMuNTYzOCIgc3R5bGU9InN0cm9rZTojMTgxODE4O3N0cm9rZS13aWR0aDoxOyIvPjxwYXRoIGQ9Ik0xMzIuNSwzNDguMDIzOSBDMTMyLjUsMzU4LjY5MzMgMTMyLjUsMzY2LjgxMzYgMTMyLjUsMzc3LjU2MzgiIGZpbGw9Im5vbmUiIHN0eWxlPSJzdHJva2U6IzE4MTgxODtzdHJva2Utd2lkdGg6MTsiLz48L2c+PGcgY2xhc3M9ImxpbmsiIGRhdGEtZW50aXR5LTE9IiYjMTA0NzsiIGRhdGEtZW50aXR5LTI9IiYjMTA0ODsiIGRhdGEtdWlkPSJsbmsyMyIgaWQ9ImxpbmtfJiMxMDQ3O18mIzEwNDg7Ij48cG9seWdvbiBmaWxsPSIjMTgxODE4IiBwb2ludHM9IjEzMi41LDQ1Mi41NjM4LDEzNi41LDQ0My41NjM4LDEzMi41LDQ0Ny41NjM4LDEyOC41LDQ0My41NjM4LDEzMi41LDQ1Mi41NjM4IiBzdHlsZT0ic3Ryb2tlOiMxODE4MTg7c3Ryb2tlLXdpZHRoOjE7Ii8+PHBhdGggZD0iTTEzMi41LDQxNy4wMjM5IEMxMzIuNSw0MjcuNjkzMyAxMzIuNSw0MzUuODEzNiAxMzIuNSw0NDYuNTYzOCIgZmlsbD0ibm9uZSIgc3R5bGU9InN0cm9rZTojMTgxODE4O3N0cm9rZS13aWR0aDoxOyIvPjwvZz48ZyBjbGFzcz0ibGluayIgZGF0YS1lbnRpdHktMT0iJiMxMDQ4OyIgZGF0YS1lbnRpdHktMj0iZW5kIiBkYXRhLXVpZD0ibG5rMjUiIGlkPSJsaW5rXyYjMTA0ODtfZW5kIj48cG9seWdvbiBmaWxsPSIjMTgxODE4IiBwb2ludHM9IjEzMi41LDUyMS45NDU1LDEzNi41LDUxMi45NDU1LDEzMi41LDUxNi45NDU1LDEyOC41LDUxMi45NDU1LDEzMi41LDUyMS45NDU1IiBzdHlsZT0ic3Ryb2tlOiMxODE4MTg7c3Ryb2tlLXdpZHRoOjE7Ii8+PHBhdGggZD0iTTEzMi41LDQ4Ni4yNTU4IEMxMzIuNSw0OTcuMzkzOCAxMzIuNSw1MDYuMDQxNCAxMzIuNSw1MTUuOTQ1NSIgZmlsbD0ibm9uZSIgc3R5bGU9InN0cm9rZTojMTgxODE4O3N0cm9rZS13aWR0aDoxOyIvPjwvZz48IS0tU1JDPVtQU3V4M2U5RzU4SlhfZ3BZczg0OU10MGxqbzM2MUNKZWpSM1pPTVYzNnJmdDgxV0lqTTBEU3RPYVVXaUFnbGRvTHhDdzdETk1MLW9mSXQzTVZGOVRoVlFBSUUtcXZwQms2Mko2VzF1WnRlb2RYN1o4Yk4tMzNnRjRSNGFlWUtHSXVPQ04xYU9kb1NIVVJaUUhqUlJQU0pRQ2I5MFFQS0o4MzdEMlJiSkZpSTBLWXJXSW9hTWkyREtTUXlFNnExWXJYRlFsd1NHTl0tLT48L2c+PC9zdmc+;" vertex="1" parent="1">
            <mxGeometry x="580" y="1440" width="266" height="549" as="geometry" />
          </mxCell>
        </UserObject>
      </root>
    </mxGraphModel>
  </diagram>
</mxfile>
